<?xml version="1.0" encoding="UTF-8" standalone="no"?>
<!DOCTYPE svg PUBLIC "-//W3C//DTD SVG 1.1//EN"
 "http://www.w3.org/Graphics/SVG/1.1/DTD/svg11.dtd">
<!-- Generated by graphviz version 2.47.0 (20210316.0004)
 -->
<!-- Title: dependencies Pages: 1 -->
<svg width="817pt" height="211pt"
 viewBox="0.00 0.00 817.00 211.00" xmlns="http://www.w3.org/2000/svg" xmlns:xlink="http://www.w3.org/1999/xlink">
<g id="graph0" class="graph" transform="scale(1 1) rotate(0) translate(4 207)">
<title>dependencies</title>
<polygon fill="white" stroke="transparent" points="-4,4 -4,-207 813,-207 813,4 -4,4"/>
<text text-anchor="start" x="383.51" y="-42.4" font-family="Times-12" font-weight="bold" font-size="14.00">Legend</text>
<polygon fill="#ffffb3" stroke="transparent" points="170.5,-10 170.5,-30 190.5,-30 190.5,-10 170.5,-10"/>
<text text-anchor="start" x="194.13" y="-15.4" font-family="Times-12" font-size="14.00"> &#160;Declarations</text>
<polygon fill="#8dd3c7" stroke="transparent" points="283.5,-10 283.5,-30 303.5,-30 303.5,-10 283.5,-10"/>
<text text-anchor="start" x="307.23" y="-15.4" font-family="Times-12" font-size="14.00"> &#160;Module</text>
<polygon fill="#80b1d3" stroke="transparent" points="369.5,-10 369.5,-30 389.5,-30 389.5,-10 369.5,-10"/>
<text text-anchor="start" x="393.28" y="-15.4" font-family="Times-12" font-size="14.00"> &#160;Bootstrap</text>
<polygon fill="#fdb462" stroke="transparent" points="466.5,-10 466.5,-30 486.5,-30 486.5,-10 466.5,-10"/>
<text text-anchor="start" x="490.17" y="-15.4" font-family="Times-12" font-size="14.00"> &#160;Providers</text>
<polygon fill="#fb8072" stroke="transparent" points="562.5,-10 562.5,-30 582.5,-30 582.5,-10 562.5,-10"/>
<text text-anchor="start" x="586.23" y="-15.4" font-family="Times-12" font-size="14.00"> &#160;Exports</text>
<g id="clust1" class="cluster">
<title>cluster_ExpenseModule</title>
<polygon fill="none" stroke="black" stroke-dasharray="1,5" points="8,-70 8,-195 801,-195 801,-70 8,-70"/>
</g>
<g id="clust5" class="cluster">
<title>cluster_ExpenseModule_imports</title>
<polygon fill="none" stroke="black" points="361,-78 361,-130 793,-130 793,-78 361,-78"/>
</g>
<g id="clust2" class="cluster">
<title>cluster_ExpenseModule_declarations</title>
<polygon fill="none" stroke="black" points="16,-78 16,-130 353,-130 353,-78 16,-78"/>
</g>
<!-- ExpenseAddComponent -->
<g id="node1" class="node">
<title>ExpenseAddComponent</title>
<polygon fill="#ffffb3" stroke="black" points="345.37,-122 192.63,-122 192.63,-86 345.37,-86 345.37,-122"/>
<text text-anchor="middle" x="269" y="-99.8" font-family="Times,serif" font-size="14.00">ExpenseAddComponent</text>
</g>
<!-- ExpenseModule -->
<g id="node3" class="node">
<title>ExpenseModule</title>
<polygon fill="#8dd3c7" stroke="black" points="471.48,-187 468.48,-191 447.48,-191 444.48,-187 364.52,-187 364.52,-151 471.48,-151 471.48,-187"/>
<text text-anchor="middle" x="418" y="-164.8" font-family="Times,serif" font-size="14.00">ExpenseModule</text>
</g>
<!-- ExpenseAddComponent&#45;&gt;ExpenseModule -->
<g id="edge1" class="edge">
<title>ExpenseAddComponent&#45;&gt;ExpenseModule</title>
<path fill="none" stroke="black" d="M269,-122.02C269,-139.37 269,-163 269,-163 269,-163 354.21,-163 354.21,-163"/>
<polygon fill="black" stroke="black" points="354.21,-166.5 364.21,-163 354.21,-159.5 354.21,-166.5"/>
</g>
<!-- ExpenseListComponent -->
<g id="node2" class="node">
<title>ExpenseListComponent</title>
<polygon fill="#ffffb3" stroke="black" points="174.04,-122 23.96,-122 23.96,-86 174.04,-86 174.04,-122"/>
<text text-anchor="middle" x="99" y="-99.8" font-family="Times,serif" font-size="14.00">ExpenseListComponent</text>
</g>
<!-- ExpenseListComponent&#45;&gt;ExpenseModule -->
<g id="edge2" class="edge">
<title>ExpenseListComponent&#45;&gt;ExpenseModule</title>
<path fill="none" stroke="black" d="M99,-122.28C99,-143.32 99,-175 99,-175 99,-175 354.25,-175 354.25,-175"/>
<polygon fill="black" stroke="black" points="354.25,-178.5 364.25,-175 354.25,-171.5 354.25,-178.5"/>
</g>
<!-- DevExtremeModule -->
<g id="node4" class="node">
<title>DevExtremeModule</title>
<polygon fill="#8dd3c7" stroke="black" points="785.29,-122 782.29,-126 761.29,-126 758.29,-122 654.71,-122 654.71,-86 785.29,-86 785.29,-122"/>
<text text-anchor="middle" x="720" y="-99.8" font-family="Times,serif" font-size="14.00">DevExtremeModule</text>
</g>
<!-- DevExtremeModule&#45;&gt;ExpenseModule -->
<g id="edge3" class="edge">
<title>DevExtremeModule&#45;&gt;ExpenseModule</title>
<path fill="none" stroke="black" d="M720,-122.28C720,-143.32 720,-175 720,-175 720,-175 481.64,-175 481.64,-175"/>
<polygon fill="black" stroke="black" points="481.64,-171.5 471.64,-175 481.64,-178.5 481.64,-171.5"/>
</g>
<!-- ExpenseRoutingModule -->
<g id="node5" class="node">
<title>ExpenseRoutingModule</title>
<polygon fill="#8dd3c7" stroke="black" points="637.09,-122 634.09,-126 613.09,-126 610.09,-122 484.91,-122 484.91,-86 637.09,-86 637.09,-122"/>
<text text-anchor="middle" x="561" y="-99.8" font-family="Times,serif" font-size="14.00">ExpenseRoutingModule</text>
</g>
<!-- ExpenseRoutingModule&#45;&gt;ExpenseModule -->
<g id="edge4" class="edge">
<title>ExpenseRoutingModule&#45;&gt;ExpenseModule</title>
<path fill="none" stroke="black" d="M561,-122.02C561,-139.37 561,-163 561,-163 561,-163 481.65,-163 481.65,-163"/>
<polygon fill="black" stroke="black" points="481.65,-159.5 471.65,-163 481.65,-166.5 481.65,-159.5"/>
</g>
<!-- SharedModule -->
<g id="node6" class="node">
<title>SharedModule</title>
<polygon fill="#8dd3c7" stroke="black" points="467.42,-122 464.42,-126 443.42,-126 440.42,-122 368.58,-122 368.58,-86 467.42,-86 467.42,-122"/>
<text text-anchor="middle" x="418" y="-99.8" font-family="Times,serif" font-size="14.00">SharedModule</text>
</g>
<!-- SharedModule&#45;&gt;ExpenseModule -->
<g id="edge5" class="edge">
<title>SharedModule&#45;&gt;ExpenseModule</title>
<path fill="none" stroke="black" d="M418,-122.11C418,-122.11 418,-140.99 418,-140.99"/>
<polygon fill="black" stroke="black" points="414.5,-140.99 418,-150.99 421.5,-140.99 414.5,-140.99"/>
</g>
</g>
</svg>
