<?xml version="1.0" encoding="UTF-8" standalone="no"?>
<!DOCTYPE svg PUBLIC "-//W3C//DTD SVG 1.1//EN"
 "http://www.w3.org/Graphics/SVG/1.1/DTD/svg11.dtd">
<!-- Generated by graphviz version 2.47.0 (20210316.0004)
 -->
<!-- Title: dependencies Pages: 1 -->
<svg width="904pt" height="211pt"
 viewBox="0.00 0.00 904.00 211.00" xmlns="http://www.w3.org/2000/svg" xmlns:xlink="http://www.w3.org/1999/xlink">
<g id="graph0" class="graph" transform="scale(1 1) rotate(0) translate(4 207)">
<title>dependencies</title>
<polygon fill="white" stroke="transparent" points="-4,4 -4,-207 900,-207 900,4 -4,4"/>
<text text-anchor="start" x="427.01" y="-42.4" font-family="Times-12" font-weight="bold" font-size="14.00">Legend</text>
<polygon fill="#ffffb3" stroke="transparent" points="214,-10 214,-30 234,-30 234,-10 214,-10"/>
<text text-anchor="start" x="237.63" y="-15.4" font-family="Times-12" font-size="14.00"> &#160;Declarations</text>
<polygon fill="#8dd3c7" stroke="transparent" points="327,-10 327,-30 347,-30 347,-10 327,-10"/>
<text text-anchor="start" x="350.73" y="-15.4" font-family="Times-12" font-size="14.00"> &#160;Module</text>
<polygon fill="#80b1d3" stroke="transparent" points="413,-10 413,-30 433,-30 433,-10 413,-10"/>
<text text-anchor="start" x="436.78" y="-15.4" font-family="Times-12" font-size="14.00"> &#160;Bootstrap</text>
<polygon fill="#fdb462" stroke="transparent" points="510,-10 510,-30 530,-30 530,-10 510,-10"/>
<text text-anchor="start" x="533.67" y="-15.4" font-family="Times-12" font-size="14.00"> &#160;Providers</text>
<polygon fill="#fb8072" stroke="transparent" points="606,-10 606,-30 626,-30 626,-10 606,-10"/>
<text text-anchor="start" x="629.73" y="-15.4" font-family="Times-12" font-size="14.00"> &#160;Exports</text>
<g id="clust1" class="cluster">
<title>cluster_StoreSpareBudgetModule</title>
<polygon fill="none" stroke="black" stroke-dasharray="1,5" points="8,-70 8,-195 888,-195 888,-70 8,-70"/>
</g>
<g id="clust2" class="cluster">
<title>cluster_StoreSpareBudgetModule_declarations</title>
<polygon fill="none" stroke="black" points="510,-78 510,-130 880,-130 880,-78 510,-78"/>
</g>
<g id="clust5" class="cluster">
<title>cluster_StoreSpareBudgetModule_imports</title>
<polygon fill="none" stroke="black" points="16,-78 16,-130 502,-130 502,-78 16,-78"/>
</g>
<!-- StoreSpareAddComponent -->
<g id="node1" class="node">
<title>StoreSpareAddComponent</title>
<polygon fill="#ffffb3" stroke="black" points="872.36,-122 705.64,-122 705.64,-86 872.36,-86 872.36,-122"/>
<text text-anchor="middle" x="789" y="-99.8" font-family="Times,serif" font-size="14.00">StoreSpareAddComponent</text>
</g>
<!-- StoreSpareBudgetModule -->
<g id="node3" class="node">
<title>StoreSpareBudgetModule</title>
<polygon fill="#8dd3c7" stroke="black" points="509.91,-187 506.91,-191 485.91,-191 482.91,-187 348.09,-187 348.09,-151 509.91,-151 509.91,-187"/>
<text text-anchor="middle" x="429" y="-164.8" font-family="Times,serif" font-size="14.00">StoreSpareBudgetModule</text>
</g>
<!-- StoreSpareAddComponent&#45;&gt;StoreSpareBudgetModule -->
<g id="edge1" class="edge">
<title>StoreSpareAddComponent&#45;&gt;StoreSpareBudgetModule</title>
<path fill="none" stroke="black" d="M789,-122.11C789,-141.34 789,-169 789,-169 789,-169 519.79,-169 519.79,-169"/>
<polygon fill="black" stroke="black" points="519.79,-165.5 509.79,-169 519.79,-172.5 519.79,-165.5"/>
</g>
<!-- StoreSpareFilesComponent -->
<g id="node2" class="node">
<title>StoreSpareFilesComponent</title>
<polygon fill="#ffffb3" stroke="black" points="687.98,-122 518.02,-122 518.02,-86 687.98,-86 687.98,-122"/>
<text text-anchor="middle" x="603" y="-99.8" font-family="Times,serif" font-size="14.00">StoreSpareFilesComponent</text>
</g>
<!-- StoreSpareFilesComponent&#45;&gt;StoreSpareBudgetModule -->
<g id="edge2" class="edge">
<title>StoreSpareFilesComponent&#45;&gt;StoreSpareBudgetModule</title>
<path fill="none" stroke="black" d="M517.72,-104C508.24,-104 501.93,-104 501.93,-104 501.93,-104 501.93,-140.89 501.93,-140.89"/>
<polygon fill="black" stroke="black" points="498.43,-140.89 501.93,-150.89 505.43,-140.89 498.43,-140.89"/>
</g>
<!-- DevExtremeModule -->
<g id="node4" class="node">
<title>DevExtremeModule</title>
<polygon fill="#8dd3c7" stroke="black" points="494.29,-122 491.29,-126 470.29,-126 467.29,-122 363.71,-122 363.71,-86 494.29,-86 494.29,-122"/>
<text text-anchor="middle" x="429" y="-99.8" font-family="Times,serif" font-size="14.00">DevExtremeModule</text>
</g>
<!-- DevExtremeModule&#45;&gt;StoreSpareBudgetModule -->
<g id="edge3" class="edge">
<title>DevExtremeModule&#45;&gt;StoreSpareBudgetModule</title>
<path fill="none" stroke="black" d="M429,-122.11C429,-122.11 429,-140.99 429,-140.99"/>
<polygon fill="black" stroke="black" points="425.5,-140.99 429,-150.99 432.5,-140.99 425.5,-140.99"/>
</g>
<!-- SharedModule -->
<g id="node5" class="node">
<title>SharedModule</title>
<polygon fill="#8dd3c7" stroke="black" points="346.42,-122 343.42,-126 322.42,-126 319.42,-122 247.58,-122 247.58,-86 346.42,-86 346.42,-122"/>
<text text-anchor="middle" x="297" y="-99.8" font-family="Times,serif" font-size="14.00">SharedModule</text>
</g>
<!-- SharedModule&#45;&gt;StoreSpareBudgetModule -->
<g id="edge4" class="edge">
<title>SharedModule&#45;&gt;StoreSpareBudgetModule</title>
<path fill="none" stroke="black" d="M346.32,-104C352.15,-104 356.07,-104 356.07,-104 356.07,-104 356.07,-140.89 356.07,-140.89"/>
<polygon fill="black" stroke="black" points="352.57,-140.89 356.07,-150.89 359.57,-140.89 352.57,-140.89"/>
</g>
<!-- StoreSpareBudgetRoutingModule -->
<g id="node6" class="node">
<title>StoreSpareBudgetRoutingModule</title>
<polygon fill="#8dd3c7" stroke="black" points="230.03,-122 227.03,-126 206.03,-126 203.03,-122 23.97,-122 23.97,-86 230.03,-86 230.03,-122"/>
<text text-anchor="middle" x="127" y="-99.8" font-family="Times,serif" font-size="14.00">StoreSpareBudgetRoutingModule</text>
</g>
<!-- StoreSpareBudgetRoutingModule&#45;&gt;StoreSpareBudgetModule -->
<g id="edge5" class="edge">
<title>StoreSpareBudgetRoutingModule&#45;&gt;StoreSpareBudgetModule</title>
<path fill="none" stroke="black" d="M127,-122.11C127,-141.34 127,-169 127,-169 127,-169 338.07,-169 338.07,-169"/>
<polygon fill="black" stroke="black" points="338.07,-172.5 348.07,-169 338.07,-165.5 338.07,-172.5"/>
</g>
</g>
</svg>
