<?xml version="1.0" encoding="UTF-8" standalone="no"?>
<!DOCTYPE svg PUBLIC "-//W3C//DTD SVG 1.1//EN"
 "http://www.w3.org/Graphics/SVG/1.1/DTD/svg11.dtd">
<!-- Generated by graphviz version 2.47.0 (20210316.0004)
 -->
<!-- Title: dependencies Pages: 1 -->
<svg width="860pt" height="284pt"
 viewBox="0.00 0.00 860.00 284.00" xmlns="http://www.w3.org/2000/svg" xmlns:xlink="http://www.w3.org/1999/xlink">
<g id="graph0" class="graph" transform="scale(1 1) rotate(0) translate(4 280)">
<title>dependencies</title>
<polygon fill="white" stroke="transparent" points="-4,4 -4,-280 856,-280 856,4 -4,4"/>
<text text-anchor="start" x="405.01" y="-42.4" font-family="Times-12" font-weight="bold" font-size="14.00">Legend</text>
<polygon fill="#ffffb3" stroke="transparent" points="192,-10 192,-30 212,-30 212,-10 192,-10"/>
<text text-anchor="start" x="215.63" y="-15.4" font-family="Times-12" font-size="14.00"> &#160;Declarations</text>
<polygon fill="#8dd3c7" stroke="transparent" points="305,-10 305,-30 325,-30 325,-10 305,-10"/>
<text text-anchor="start" x="328.73" y="-15.4" font-family="Times-12" font-size="14.00"> &#160;Module</text>
<polygon fill="#80b1d3" stroke="transparent" points="391,-10 391,-30 411,-30 411,-10 391,-10"/>
<text text-anchor="start" x="414.78" y="-15.4" font-family="Times-12" font-size="14.00"> &#160;Bootstrap</text>
<polygon fill="#fdb462" stroke="transparent" points="488,-10 488,-30 508,-30 508,-10 488,-10"/>
<text text-anchor="start" x="511.67" y="-15.4" font-family="Times-12" font-size="14.00"> &#160;Providers</text>
<polygon fill="#fb8072" stroke="transparent" points="584,-10 584,-30 604,-30 604,-10 584,-10"/>
<text text-anchor="start" x="607.73" y="-15.4" font-family="Times-12" font-size="14.00"> &#160;Exports</text>
<g id="clust1" class="cluster">
<title>cluster_SharedModule</title>
<polygon fill="none" stroke="black" stroke-dasharray="1,5" points="8,-70 8,-268 844,-268 844,-70 8,-70"/>
</g>
<g id="clust2" class="cluster">
<title>cluster_SharedModule_declarations</title>
<polygon fill="none" stroke="black" points="170,-78 170,-130 836,-130 836,-78 170,-78"/>
</g>
<g id="clust6" class="cluster">
<title>cluster_SharedModule_imports</title>
<polygon fill="none" stroke="black" points="16,-78 16,-130 162,-130 162,-78 16,-78"/>
</g>
<g id="clust7" class="cluster">
<title>cluster_SharedModule_exports</title>
<polygon fill="none" stroke="black" points="87,-208 87,-260 764,-260 764,-208 87,-208"/>
</g>
<!-- ActionWorkflowComponent -->
<g id="node1" class="node">
<title>ActionWorkflowComponent</title>
<polygon fill="#ffffb3" stroke="black" points="828.47,-122 651.53,-122 651.53,-86 828.47,-86 828.47,-122"/>
<text text-anchor="middle" x="740" y="-99.8" font-family="Times,serif" font-size="14.00">ActionWorkflowComponent</text>
</g>
<!-- SharedModule -->
<g id="node4" class="node">
<title>SharedModule</title>
<polygon fill="#8dd3c7" stroke="black" points="507.42,-187 504.42,-191 483.42,-191 480.42,-187 408.58,-187 408.58,-151 507.42,-151 507.42,-187"/>
<text text-anchor="middle" x="458" y="-164.8" font-family="Times,serif" font-size="14.00">SharedModule</text>
</g>
<!-- ActionWorkflowComponent&#45;&gt;SharedModule -->
<g id="edge1" class="edge">
<title>ActionWorkflowComponent&#45;&gt;SharedModule</title>
<path fill="none" stroke="black" d="M703.88,-122.02C703.88,-139.37 703.88,-163 703.88,-163 703.88,-163 517.46,-163 517.46,-163"/>
<polygon fill="black" stroke="black" points="517.46,-159.5 507.46,-163 517.46,-166.5 517.46,-159.5"/>
</g>
<!-- UploaderFromExcelComponent -->
<g id="node2" class="node">
<title>UploaderFromExcelComponent</title>
<polygon fill="#ffffb3" stroke="black" points="633.63,-122 438.37,-122 438.37,-86 633.63,-86 633.63,-122"/>
<text text-anchor="middle" x="536" y="-99.8" font-family="Times,serif" font-size="14.00">UploaderFromExcelComponent</text>
</g>
<!-- UploaderFromExcelComponent&#45;&gt;SharedModule -->
<g id="edge2" class="edge">
<title>UploaderFromExcelComponent&#45;&gt;SharedModule</title>
<path fill="none" stroke="black" d="M472.7,-122.11C472.7,-122.11 472.7,-140.99 472.7,-140.99"/>
<polygon fill="black" stroke="black" points="469.2,-140.99 472.7,-150.99 476.2,-140.99 469.2,-140.99"/>
</g>
<!-- WorkflowActionLogHistoryComponent -->
<g id="node3" class="node">
<title>WorkflowActionLogHistoryComponent</title>
<polygon fill="#ffffb3" stroke="black" points="419.51,-122 178.49,-122 178.49,-86 419.51,-86 419.51,-122"/>
<text text-anchor="middle" x="299" y="-99.8" font-family="Times,serif" font-size="14.00">WorkflowActionLogHistoryComponent</text>
</g>
<!-- WorkflowActionLogHistoryComponent&#45;&gt;SharedModule -->
<g id="edge3" class="edge">
<title>WorkflowActionLogHistoryComponent&#45;&gt;SharedModule</title>
<path fill="none" stroke="black" d="M414.27,-122.11C414.27,-122.11 414.27,-140.99 414.27,-140.99"/>
<polygon fill="black" stroke="black" points="410.77,-140.99 414.27,-150.99 417.77,-140.99 410.77,-140.99"/>
</g>
<!-- ActionWorkflowComponent  -->
<g id="node6" class="node">
<title>ActionWorkflowComponent </title>
<polygon fill="#fb8072" stroke="black" points="756.47,-252 575.53,-252 575.53,-216 756.47,-216 756.47,-252"/>
<text text-anchor="middle" x="666" y="-229.8" font-family="Times,serif" font-size="14.00">ActionWorkflowComponent </text>
</g>
<!-- SharedModule&#45;&gt;ActionWorkflowComponent  -->
<g id="edge5" class="edge">
<title>SharedModule&#45;&gt;ActionWorkflowComponent </title>
<path fill="none" stroke="black" stroke-dasharray="5,2" d="M507.29,-175C549.93,-175 604.79,-175 604.79,-175 604.79,-175 604.79,-205.98 604.79,-205.98"/>
<polygon fill="black" stroke="black" points="601.29,-205.98 604.79,-215.98 608.29,-205.98 601.29,-205.98"/>
</g>
<!-- UploaderFromExcelComponent  -->
<g id="node7" class="node">
<title>UploaderFromExcelComponent </title>
<polygon fill="#fb8072" stroke="black" points="557.63,-252 358.37,-252 358.37,-216 557.63,-216 557.63,-252"/>
<text text-anchor="middle" x="458" y="-229.8" font-family="Times,serif" font-size="14.00">UploaderFromExcelComponent </text>
</g>
<!-- SharedModule&#45;&gt;UploaderFromExcelComponent  -->
<g id="edge6" class="edge">
<title>SharedModule&#45;&gt;UploaderFromExcelComponent </title>
<path fill="none" stroke="black" stroke-dasharray="5,2" d="M458,-187.11C458,-187.11 458,-205.99 458,-205.99"/>
<polygon fill="black" stroke="black" points="454.5,-205.99 458,-215.99 461.5,-205.99 454.5,-205.99"/>
</g>
<!-- WorkflowActionLogHistoryComponent  -->
<g id="node8" class="node">
<title>WorkflowActionLogHistoryComponent </title>
<polygon fill="#fb8072" stroke="black" points="340.51,-252 95.49,-252 95.49,-216 340.51,-216 340.51,-252"/>
<text text-anchor="middle" x="218" y="-229.8" font-family="Times,serif" font-size="14.00">WorkflowActionLogHistoryComponent </text>
</g>
<!-- SharedModule&#45;&gt;WorkflowActionLogHistoryComponent  -->
<g id="edge7" class="edge">
<title>SharedModule&#45;&gt;WorkflowActionLogHistoryComponent </title>
<path fill="none" stroke="black" stroke-dasharray="5,2" d="M408.65,-175C349.82,-175 259.38,-175 259.38,-175 259.38,-175 259.38,-205.98 259.38,-205.98"/>
<polygon fill="black" stroke="black" points="255.88,-205.98 259.38,-215.98 262.88,-205.98 255.88,-205.98"/>
</g>
<!-- DevExtremeModule -->
<g id="node5" class="node">
<title>DevExtremeModule</title>
<polygon fill="#8dd3c7" stroke="black" points="154.29,-122 151.29,-126 130.29,-126 127.29,-122 23.71,-122 23.71,-86 154.29,-86 154.29,-122"/>
<text text-anchor="middle" x="89" y="-99.8" font-family="Times,serif" font-size="14.00">DevExtremeModule</text>
</g>
<!-- DevExtremeModule&#45;&gt;SharedModule -->
<g id="edge4" class="edge">
<title>DevExtremeModule&#45;&gt;SharedModule</title>
<path fill="none" stroke="black" d="M124.82,-122.02C124.82,-139.37 124.82,-163 124.82,-163 124.82,-163 398.48,-163 398.48,-163"/>
<polygon fill="black" stroke="black" points="398.48,-166.5 408.48,-163 398.48,-159.5 398.48,-166.5"/>
</g>
</g>
</svg>
