<?xml version="1.0" encoding="UTF-8" standalone="no"?>
<!DOCTYPE svg PUBLIC "-//W3C//DTD SVG 1.1//EN"
 "http://www.w3.org/Graphics/SVG/1.1/DTD/svg11.dtd">
<!-- Generated by graphviz version 2.47.0 (20210316.0004)
 -->
<!-- Title: dependencies Pages: 1 -->
<svg width="1155pt" height="284pt"
 viewBox="0.00 0.00 1155.00 284.00" xmlns="http://www.w3.org/2000/svg" xmlns:xlink="http://www.w3.org/1999/xlink">
<g id="graph0" class="graph" transform="scale(1 1) rotate(0) translate(4 280)">
<title>dependencies</title>
<polygon fill="white" stroke="transparent" points="-4,4 -4,-280 1151,-280 1151,4 -4,4"/>
<text text-anchor="start" x="552.51" y="-42.4" font-family="Times-12" font-weight="bold" font-size="14.00">Legend</text>
<polygon fill="#ffffb3" stroke="transparent" points="339.5,-10 339.5,-30 359.5,-30 359.5,-10 339.5,-10"/>
<text text-anchor="start" x="363.13" y="-15.4" font-family="Times-12" font-size="14.00"> &#160;Declarations</text>
<polygon fill="#8dd3c7" stroke="transparent" points="452.5,-10 452.5,-30 472.5,-30 472.5,-10 452.5,-10"/>
<text text-anchor="start" x="476.23" y="-15.4" font-family="Times-12" font-size="14.00"> &#160;Module</text>
<polygon fill="#80b1d3" stroke="transparent" points="538.5,-10 538.5,-30 558.5,-30 558.5,-10 538.5,-10"/>
<text text-anchor="start" x="562.28" y="-15.4" font-family="Times-12" font-size="14.00"> &#160;Bootstrap</text>
<polygon fill="#fdb462" stroke="transparent" points="635.5,-10 635.5,-30 655.5,-30 655.5,-10 635.5,-10"/>
<text text-anchor="start" x="659.17" y="-15.4" font-family="Times-12" font-size="14.00"> &#160;Providers</text>
<polygon fill="#fb8072" stroke="transparent" points="731.5,-10 731.5,-30 751.5,-30 751.5,-10 731.5,-10"/>
<text text-anchor="start" x="755.23" y="-15.4" font-family="Times-12" font-size="14.00"> &#160;Exports</text>
<g id="clust1" class="cluster">
<title>cluster_AppModule</title>
<polygon fill="none" stroke="black" stroke-dasharray="1,5" points="8,-70 8,-268 1139,-268 1139,-70 8,-70"/>
</g>
<g id="clust2" class="cluster">
<title>cluster_AppModule_declarations</title>
<polygon fill="none" stroke="black" points="433,-78 433,-130 1131,-130 1131,-78 433,-78"/>
</g>
<g id="clust8" class="cluster">
<title>cluster_AppModule_imports</title>
<polygon fill="none" stroke="black" points="16,-78 16,-130 425,-130 425,-78 16,-78"/>
</g>
<g id="clust10" class="cluster">
<title>cluster_AppModule_bootstrap</title>
<polygon fill="none" stroke="black" points="511,-208 511,-260 635,-260 635,-208 511,-208"/>
</g>
<!-- AppComponent -->
<g id="node1" class="node">
<title>AppComponent</title>
<polygon fill="#ffffb3" stroke="black" points="1122.94,-122 1017.06,-122 1017.06,-86 1122.94,-86 1122.94,-122"/>
<text text-anchor="middle" x="1070" y="-99.8" font-family="Times,serif" font-size="14.00">AppComponent</text>
</g>
<!-- AppModule -->
<g id="node6" class="node">
<title>AppModule</title>
<polygon fill="#8dd3c7" stroke="black" points="614.66,-187 611.66,-191 590.66,-191 587.66,-187 531.34,-187 531.34,-151 614.66,-151 614.66,-187"/>
<text text-anchor="middle" x="573" y="-164.8" font-family="Times,serif" font-size="14.00">AppModule</text>
</g>
<!-- AppComponent&#45;&gt;AppModule -->
<g id="edge1" class="edge">
<title>AppComponent&#45;&gt;AppModule</title>
<path fill="none" stroke="black" d="M1070,-122.29C1070,-144.21 1070,-178 1070,-178 1070,-178 624.95,-178 624.95,-178"/>
<polygon fill="black" stroke="black" points="624.95,-174.5 614.95,-178 624.95,-181.5 624.95,-174.5"/>
</g>
<!-- FooterComponent -->
<g id="node2" class="node">
<title>FooterComponent</title>
<polygon fill="#ffffb3" stroke="black" points="998.88,-122 881.12,-122 881.12,-86 998.88,-86 998.88,-122"/>
<text text-anchor="middle" x="940" y="-99.8" font-family="Times,serif" font-size="14.00">FooterComponent</text>
</g>
<!-- FooterComponent&#45;&gt;AppModule -->
<g id="edge2" class="edge">
<title>FooterComponent&#45;&gt;AppModule</title>
<path fill="none" stroke="black" d="M940,-122.11C940,-141.34 940,-169 940,-169 940,-169 624.74,-169 624.74,-169"/>
<polygon fill="black" stroke="black" points="624.74,-165.5 614.74,-169 624.74,-172.5 624.74,-165.5"/>
</g>
<!-- HeaderComponent -->
<g id="node3" class="node">
<title>HeaderComponent</title>
<polygon fill="#ffffb3" stroke="black" points="862.74,-122 741.26,-122 741.26,-86 862.74,-86 862.74,-122"/>
<text text-anchor="middle" x="802" y="-99.8" font-family="Times,serif" font-size="14.00">HeaderComponent</text>
</g>
<!-- HeaderComponent&#45;&gt;AppModule -->
<g id="edge3" class="edge">
<title>HeaderComponent&#45;&gt;AppModule</title>
<path fill="none" stroke="black" d="M802,-122.03C802,-138.4 802,-160 802,-160 802,-160 624.74,-160 624.74,-160"/>
<polygon fill="black" stroke="black" points="624.74,-156.5 614.74,-160 624.74,-163.5 624.74,-156.5"/>
</g>
<!-- MainLayoutComponent -->
<g id="node4" class="node">
<title>MainLayoutComponent</title>
<polygon fill="#ffffb3" stroke="black" points="723.04,-122 572.96,-122 572.96,-86 723.04,-86 723.04,-122"/>
<text text-anchor="middle" x="648" y="-99.8" font-family="Times,serif" font-size="14.00">MainLayoutComponent</text>
</g>
<!-- MainLayoutComponent&#45;&gt;AppModule -->
<g id="edge4" class="edge">
<title>MainLayoutComponent&#45;&gt;AppModule</title>
<path fill="none" stroke="black" d="M593.78,-122.11C593.78,-122.11 593.78,-140.99 593.78,-140.99"/>
<polygon fill="black" stroke="black" points="590.28,-140.99 593.78,-150.99 597.28,-140.99 590.28,-140.99"/>
</g>
<!-- MenuComponent -->
<g id="node5" class="node">
<title>MenuComponent</title>
<polygon fill="#ffffb3" stroke="black" points="554.99,-122 441.01,-122 441.01,-86 554.99,-86 554.99,-122"/>
<text text-anchor="middle" x="498" y="-99.8" font-family="Times,serif" font-size="14.00">MenuComponent</text>
</g>
<!-- MenuComponent&#45;&gt;AppModule -->
<g id="edge5" class="edge">
<title>MenuComponent&#45;&gt;AppModule</title>
<path fill="none" stroke="black" d="M543.08,-122.11C543.08,-122.11 543.08,-140.99 543.08,-140.99"/>
<polygon fill="black" stroke="black" points="539.58,-140.99 543.08,-150.99 546.58,-140.99 539.58,-140.99"/>
</g>
<!-- AppComponent  -->
<g id="node10" class="node">
<title>AppComponent </title>
<polygon fill="#80b1d3" stroke="black" points="627.44,-252 518.56,-252 518.56,-216 627.44,-216 627.44,-252"/>
<text text-anchor="middle" x="573" y="-229.8" font-family="Times,serif" font-size="14.00">AppComponent </text>
</g>
<!-- AppModule&#45;&gt;AppComponent  -->
<g id="edge9" class="edge">
<title>AppModule&#45;&gt;AppComponent </title>
<path fill="none" stroke="black" stroke-dasharray="1,5" d="M573,-187.11C573,-187.11 573,-205.99 573,-205.99"/>
<polygon fill="black" stroke="black" points="569.5,-205.99 573,-215.99 576.5,-205.99 569.5,-205.99"/>
</g>
<!-- AppRoutingModule -->
<g id="node7" class="node">
<title>AppRoutingModule</title>
<polygon fill="#8dd3c7" stroke="black" points="417.27,-122 414.27,-126 393.27,-126 390.27,-122 288.73,-122 288.73,-86 417.27,-86 417.27,-122"/>
<text text-anchor="middle" x="353" y="-99.8" font-family="Times,serif" font-size="14.00">AppRoutingModule</text>
</g>
<!-- AppRoutingModule&#45;&gt;AppModule -->
<g id="edge6" class="edge">
<title>AppRoutingModule&#45;&gt;AppModule</title>
<path fill="none" stroke="black" d="M353,-122.03C353,-138.4 353,-160 353,-160 353,-160 521.1,-160 521.1,-160"/>
<polygon fill="black" stroke="black" points="521.1,-163.5 531.1,-160 521.1,-156.5 521.1,-163.5"/>
</g>
<!-- DevExtremeModule -->
<g id="node8" class="node">
<title>DevExtremeModule</title>
<polygon fill="#8dd3c7" stroke="black" points="270.29,-122 267.29,-126 246.29,-126 243.29,-122 139.71,-122 139.71,-86 270.29,-86 270.29,-122"/>
<text text-anchor="middle" x="205" y="-99.8" font-family="Times,serif" font-size="14.00">DevExtremeModule</text>
</g>
<!-- DevExtremeModule&#45;&gt;AppModule -->
<g id="edge7" class="edge">
<title>DevExtremeModule&#45;&gt;AppModule</title>
<path fill="none" stroke="black" d="M205,-122.11C205,-141.34 205,-169 205,-169 205,-169 521.14,-169 521.14,-169"/>
<polygon fill="black" stroke="black" points="521.14,-172.5 531.14,-169 521.14,-165.5 521.14,-172.5"/>
</g>
<!-- SharedModule -->
<g id="node9" class="node">
<title>SharedModule</title>
<polygon fill="#8dd3c7" stroke="black" points="122.42,-122 119.42,-126 98.42,-126 95.42,-122 23.58,-122 23.58,-86 122.42,-86 122.42,-122"/>
<text text-anchor="middle" x="73" y="-99.8" font-family="Times,serif" font-size="14.00">SharedModule</text>
</g>
<!-- SharedModule&#45;&gt;AppModule -->
<g id="edge8" class="edge">
<title>SharedModule&#45;&gt;AppModule</title>
<path fill="none" stroke="black" d="M73,-122.29C73,-144.21 73,-178 73,-178 73,-178 521.23,-178 521.23,-178"/>
<polygon fill="black" stroke="black" points="521.23,-181.5 531.23,-178 521.23,-174.5 521.23,-181.5"/>
</g>
</g>
</svg>
