<?xml version="1.0" encoding="UTF-8" standalone="no"?>
<!DOCTYPE svg PUBLIC "-//W3C//DTD SVG 1.1//EN"
 "http://www.w3.org/Graphics/SVG/1.1/DTD/svg11.dtd">
<!-- Generated by graphviz version 2.47.0 (20210316.0004)
 -->
<!-- Title: dependencies Pages: 1 -->
<svg width="744pt" height="211pt"
 viewBox="0.00 0.00 744.00 211.00" xmlns="http://www.w3.org/2000/svg" xmlns:xlink="http://www.w3.org/1999/xlink">
<g id="graph0" class="graph" transform="scale(1 1) rotate(0) translate(4 207)">
<title>dependencies</title>
<polygon fill="white" stroke="transparent" points="-4,4 -4,-207 740,-207 740,4 -4,4"/>
<text text-anchor="start" x="347.01" y="-42.4" font-family="Times-12" font-weight="bold" font-size="14.00">Legend</text>
<polygon fill="#ffffb3" stroke="transparent" points="134,-10 134,-30 154,-30 154,-10 134,-10"/>
<text text-anchor="start" x="157.63" y="-15.4" font-family="Times-12" font-size="14.00"> &#160;Declarations</text>
<polygon fill="#8dd3c7" stroke="transparent" points="247,-10 247,-30 267,-30 267,-10 247,-10"/>
<text text-anchor="start" x="270.73" y="-15.4" font-family="Times-12" font-size="14.00"> &#160;Module</text>
<polygon fill="#80b1d3" stroke="transparent" points="333,-10 333,-30 353,-30 353,-10 333,-10"/>
<text text-anchor="start" x="356.78" y="-15.4" font-family="Times-12" font-size="14.00"> &#160;Bootstrap</text>
<polygon fill="#fdb462" stroke="transparent" points="430,-10 430,-30 450,-30 450,-10 430,-10"/>
<text text-anchor="start" x="453.67" y="-15.4" font-family="Times-12" font-size="14.00"> &#160;Providers</text>
<polygon fill="#fb8072" stroke="transparent" points="526,-10 526,-30 546,-30 546,-10 526,-10"/>
<text text-anchor="start" x="549.73" y="-15.4" font-family="Times-12" font-size="14.00"> &#160;Exports</text>
<g id="clust1" class="cluster">
<title>cluster_ProductionBudgetModule</title>
<polygon fill="none" stroke="black" stroke-dasharray="1,5" points="8,-70 8,-195 728,-195 728,-70 8,-70"/>
</g>
<g id="clust2" class="cluster">
<title>cluster_ProductionBudgetModule_declarations</title>
<polygon fill="none" stroke="black" points="510,-78 510,-130 720,-130 720,-78 510,-78"/>
</g>
<g id="clust4" class="cluster">
<title>cluster_ProductionBudgetModule_imports</title>
<polygon fill="none" stroke="black" points="16,-78 16,-130 502,-130 502,-78 16,-78"/>
</g>
<!-- ProductionBdgtAddComponent -->
<g id="node1" class="node">
<title>ProductionBdgtAddComponent</title>
<polygon fill="#ffffb3" stroke="black" points="712.11,-122 517.89,-122 517.89,-86 712.11,-86 712.11,-122"/>
<text text-anchor="middle" x="615" y="-99.8" font-family="Times,serif" font-size="14.00">ProductionBdgtAddComponent</text>
</g>
<!-- ProductionBudgetModule -->
<g id="node2" class="node">
<title>ProductionBudgetModule</title>
<polygon fill="#8dd3c7" stroke="black" points="416.93,-187 413.93,-191 392.93,-191 389.93,-187 255.07,-187 255.07,-151 416.93,-151 416.93,-187"/>
<text text-anchor="middle" x="336" y="-164.8" font-family="Times,serif" font-size="14.00">ProductionBudgetModule</text>
</g>
<!-- ProductionBdgtAddComponent&#45;&gt;ProductionBudgetModule -->
<g id="edge1" class="edge">
<title>ProductionBdgtAddComponent&#45;&gt;ProductionBudgetModule</title>
<path fill="none" stroke="black" d="M615,-122.11C615,-141.34 615,-169 615,-169 615,-169 427.07,-169 427.07,-169"/>
<polygon fill="black" stroke="black" points="427.07,-165.5 417.07,-169 427.07,-172.5 427.07,-165.5"/>
</g>
<!-- DevExtremeModule -->
<g id="node3" class="node">
<title>DevExtremeModule</title>
<polygon fill="#8dd3c7" stroke="black" points="494.29,-122 491.29,-126 470.29,-126 467.29,-122 363.71,-122 363.71,-86 494.29,-86 494.29,-122"/>
<text text-anchor="middle" x="429" y="-99.8" font-family="Times,serif" font-size="14.00">DevExtremeModule</text>
</g>
<!-- DevExtremeModule&#45;&gt;ProductionBudgetModule -->
<g id="edge2" class="edge">
<title>DevExtremeModule&#45;&gt;ProductionBudgetModule</title>
<path fill="none" stroke="black" d="M390.28,-122.11C390.28,-122.11 390.28,-140.99 390.28,-140.99"/>
<polygon fill="black" stroke="black" points="386.78,-140.99 390.28,-150.99 393.78,-140.99 386.78,-140.99"/>
</g>
<!-- ProductionBudgetRoutingModule -->
<g id="node4" class="node">
<title>ProductionBudgetRoutingModule</title>
<polygon fill="#8dd3c7" stroke="black" points="346.05,-122 343.05,-126 322.05,-126 319.05,-122 139.95,-122 139.95,-86 346.05,-86 346.05,-122"/>
<text text-anchor="middle" x="243" y="-99.8" font-family="Times,serif" font-size="14.00">ProductionBudgetRoutingModule</text>
</g>
<!-- ProductionBudgetRoutingModule&#45;&gt;ProductionBudgetModule -->
<g id="edge3" class="edge">
<title>ProductionBudgetRoutingModule&#45;&gt;ProductionBudgetModule</title>
<path fill="none" stroke="black" d="M300.78,-122.11C300.78,-122.11 300.78,-140.99 300.78,-140.99"/>
<polygon fill="black" stroke="black" points="297.28,-140.99 300.78,-150.99 304.28,-140.99 297.28,-140.99"/>
</g>
<!-- SharedModule -->
<g id="node5" class="node">
<title>SharedModule</title>
<polygon fill="#8dd3c7" stroke="black" points="122.42,-122 119.42,-126 98.42,-126 95.42,-122 23.58,-122 23.58,-86 122.42,-86 122.42,-122"/>
<text text-anchor="middle" x="73" y="-99.8" font-family="Times,serif" font-size="14.00">SharedModule</text>
</g>
<!-- SharedModule&#45;&gt;ProductionBudgetModule -->
<g id="edge4" class="edge">
<title>SharedModule&#45;&gt;ProductionBudgetModule</title>
<path fill="none" stroke="black" d="M73,-122.11C73,-141.34 73,-169 73,-169 73,-169 244.95,-169 244.95,-169"/>
<polygon fill="black" stroke="black" points="244.95,-172.5 254.95,-169 244.95,-165.5 244.95,-172.5"/>
</g>
</g>
</svg>
