<?xml version="1.0" encoding="UTF-8" standalone="no"?>
<!DOCTYPE svg PUBLIC "-//W3C//DTD SVG 1.1//EN"
 "http://www.w3.org/Graphics/SVG/1.1/DTD/svg11.dtd">
<!-- Generated by graphviz version 2.47.0 (20210316.0004)
 -->
<!-- Title: dependencies Pages: 1 -->
<svg width="848pt" height="211pt"
 viewBox="0.00 0.00 848.00 211.00" xmlns="http://www.w3.org/2000/svg" xmlns:xlink="http://www.w3.org/1999/xlink">
<g id="graph0" class="graph" transform="scale(1 1) rotate(0) translate(4 207)">
<title>dependencies</title>
<polygon fill="white" stroke="transparent" points="-4,4 -4,-207 844,-207 844,4 -4,4"/>
<text text-anchor="start" x="399.01" y="-42.4" font-family="Times-12" font-weight="bold" font-size="14.00">Legend</text>
<polygon fill="#ffffb3" stroke="transparent" points="186,-10 186,-30 206,-30 206,-10 186,-10"/>
<text text-anchor="start" x="209.63" y="-15.4" font-family="Times-12" font-size="14.00"> &#160;Declarations</text>
<polygon fill="#8dd3c7" stroke="transparent" points="299,-10 299,-30 319,-30 319,-10 299,-10"/>
<text text-anchor="start" x="322.73" y="-15.4" font-family="Times-12" font-size="14.00"> &#160;Module</text>
<polygon fill="#80b1d3" stroke="transparent" points="385,-10 385,-30 405,-30 405,-10 385,-10"/>
<text text-anchor="start" x="408.78" y="-15.4" font-family="Times-12" font-size="14.00"> &#160;Bootstrap</text>
<polygon fill="#fdb462" stroke="transparent" points="482,-10 482,-30 502,-30 502,-10 482,-10"/>
<text text-anchor="start" x="505.67" y="-15.4" font-family="Times-12" font-size="14.00"> &#160;Providers</text>
<polygon fill="#fb8072" stroke="transparent" points="578,-10 578,-30 598,-30 598,-10 578,-10"/>
<text text-anchor="start" x="601.73" y="-15.4" font-family="Times-12" font-size="14.00"> &#160;Exports</text>
<g id="clust1" class="cluster">
<title>cluster_BatchAdminModule</title>
<polygon fill="none" stroke="black" stroke-dasharray="1,5" points="8,-70 8,-195 832,-195 832,-70 8,-70"/>
</g>
<g id="clust5" class="cluster">
<title>cluster_BatchAdminModule_imports</title>
<polygon fill="none" stroke="black" points="368,-78 368,-130 824,-130 824,-78 368,-78"/>
</g>
<g id="clust2" class="cluster">
<title>cluster_BatchAdminModule_declarations</title>
<polygon fill="none" stroke="black" points="16,-78 16,-130 360,-130 360,-78 16,-78"/>
</g>
<!-- FormulaItemComponent -->
<g id="node1" class="node">
<title>FormulaItemComponent</title>
<polygon fill="#ffffb3" stroke="black" points="352.43,-122 197.57,-122 197.57,-86 352.43,-86 352.43,-122"/>
<text text-anchor="middle" x="275" y="-99.8" font-family="Times,serif" font-size="14.00">FormulaItemComponent</text>
</g>
<!-- BatchAdminModule -->
<g id="node3" class="node">
<title>BatchAdminModule</title>
<polygon fill="#8dd3c7" stroke="black" points="490.59,-187 487.59,-191 466.59,-191 463.59,-187 359.41,-187 359.41,-151 490.59,-151 490.59,-187"/>
<text text-anchor="middle" x="425" y="-164.8" font-family="Times,serif" font-size="14.00">BatchAdminModule</text>
</g>
<!-- FormulaItemComponent&#45;&gt;BatchAdminModule -->
<g id="edge1" class="edge">
<title>FormulaItemComponent&#45;&gt;BatchAdminModule</title>
<path fill="none" stroke="black" d="M352.33,-104C361.46,-104 367.62,-104 367.62,-104 367.62,-104 367.62,-140.89 367.62,-140.89"/>
<polygon fill="black" stroke="black" points="364.12,-140.89 367.62,-150.89 371.12,-140.89 364.12,-140.89"/>
</g>
<!-- GlobalParamComponent -->
<g id="node2" class="node">
<title>GlobalParamComponent</title>
<polygon fill="#ffffb3" stroke="black" points="179.7,-122 24.3,-122 24.3,-86 179.7,-86 179.7,-122"/>
<text text-anchor="middle" x="102" y="-99.8" font-family="Times,serif" font-size="14.00">GlobalParamComponent</text>
</g>
<!-- GlobalParamComponent&#45;&gt;BatchAdminModule -->
<g id="edge2" class="edge">
<title>GlobalParamComponent&#45;&gt;BatchAdminModule</title>
<path fill="none" stroke="black" d="M102,-122.11C102,-141.34 102,-169 102,-169 102,-169 349.25,-169 349.25,-169"/>
<polygon fill="black" stroke="black" points="349.25,-172.5 359.25,-169 349.25,-165.5 349.25,-172.5"/>
</g>
<!-- BatchAdminRoutingModule -->
<g id="node4" class="node">
<title>BatchAdminRoutingModule</title>
<polygon fill="#8dd3c7" stroke="black" points="816.21,-122 813.21,-126 792.21,-126 789.21,-122 639.79,-122 639.79,-86 816.21,-86 816.21,-122"/>
<text text-anchor="middle" x="728" y="-99.8" font-family="Times,serif" font-size="14.00">BatchAdminRoutingModule</text>
</g>
<!-- BatchAdminRoutingModule&#45;&gt;BatchAdminModule -->
<g id="edge3" class="edge">
<title>BatchAdminRoutingModule&#45;&gt;BatchAdminModule</title>
<path fill="none" stroke="black" d="M728,-122.11C728,-141.34 728,-169 728,-169 728,-169 500.75,-169 500.75,-169"/>
<polygon fill="black" stroke="black" points="500.75,-165.5 490.75,-169 500.75,-172.5 500.75,-165.5"/>
</g>
<!-- DevExtremeModule -->
<g id="node5" class="node">
<title>DevExtremeModule</title>
<polygon fill="#8dd3c7" stroke="black" points="622.29,-122 619.29,-126 598.29,-126 595.29,-122 491.71,-122 491.71,-86 622.29,-86 622.29,-122"/>
<text text-anchor="middle" x="557" y="-99.8" font-family="Times,serif" font-size="14.00">DevExtremeModule</text>
</g>
<!-- DevExtremeModule&#45;&gt;BatchAdminModule -->
<g id="edge4" class="edge">
<title>DevExtremeModule&#45;&gt;BatchAdminModule</title>
<path fill="none" stroke="black" d="M491.83,-104C486.08,-104 482.38,-104 482.38,-104 482.38,-104 482.38,-140.89 482.38,-140.89"/>
<polygon fill="black" stroke="black" points="478.88,-140.89 482.38,-150.89 485.88,-140.89 478.88,-140.89"/>
</g>
<!-- SharedModule -->
<g id="node6" class="node">
<title>SharedModule</title>
<polygon fill="#8dd3c7" stroke="black" points="474.42,-122 471.42,-126 450.42,-126 447.42,-122 375.58,-122 375.58,-86 474.42,-86 474.42,-122"/>
<text text-anchor="middle" x="425" y="-99.8" font-family="Times,serif" font-size="14.00">SharedModule</text>
</g>
<!-- SharedModule&#45;&gt;BatchAdminModule -->
<g id="edge5" class="edge">
<title>SharedModule&#45;&gt;BatchAdminModule</title>
<path fill="none" stroke="black" d="M425,-122.11C425,-122.11 425,-140.99 425,-140.99"/>
<polygon fill="black" stroke="black" points="421.5,-140.99 425,-150.99 428.5,-140.99 421.5,-140.99"/>
</g>
</g>
</svg>
