<?xml version="1.0" encoding="UTF-8" standalone="no"?>
<!DOCTYPE svg PUBLIC "-//W3C//DTD SVG 1.1//EN"
 "http://www.w3.org/Graphics/SVG/1.1/DTD/svg11.dtd">
<!-- Generated by graphviz version 2.47.0 (20210316.0004)
 -->
<!-- Title: dependencies Pages: 1 -->
<svg width="716pt" height="211pt"
 viewBox="0.00 0.00 716.00 211.00" xmlns="http://www.w3.org/2000/svg" xmlns:xlink="http://www.w3.org/1999/xlink">
<g id="graph0" class="graph" transform="scale(1 1) rotate(0) translate(4 207)">
<title>dependencies</title>
<polygon fill="white" stroke="transparent" points="-4,4 -4,-207 712,-207 712,4 -4,4"/>
<text text-anchor="start" x="333.01" y="-42.4" font-family="Times-12" font-weight="bold" font-size="14.00">Legend</text>
<polygon fill="#ffffb3" stroke="transparent" points="120,-10 120,-30 140,-30 140,-10 120,-10"/>
<text text-anchor="start" x="143.63" y="-15.4" font-family="Times-12" font-size="14.00"> &#160;Declarations</text>
<polygon fill="#8dd3c7" stroke="transparent" points="233,-10 233,-30 253,-30 253,-10 233,-10"/>
<text text-anchor="start" x="256.73" y="-15.4" font-family="Times-12" font-size="14.00"> &#160;Module</text>
<polygon fill="#80b1d3" stroke="transparent" points="319,-10 319,-30 339,-30 339,-10 319,-10"/>
<text text-anchor="start" x="342.78" y="-15.4" font-family="Times-12" font-size="14.00"> &#160;Bootstrap</text>
<polygon fill="#fdb462" stroke="transparent" points="416,-10 416,-30 436,-30 436,-10 416,-10"/>
<text text-anchor="start" x="439.67" y="-15.4" font-family="Times-12" font-size="14.00"> &#160;Providers</text>
<polygon fill="#fb8072" stroke="transparent" points="512,-10 512,-30 532,-30 532,-10 512,-10"/>
<text text-anchor="start" x="535.73" y="-15.4" font-family="Times-12" font-size="14.00"> &#160;Exports</text>
<g id="clust1" class="cluster">
<title>cluster_CapitalBudgetModule</title>
<polygon fill="none" stroke="black" stroke-dasharray="1,5" points="8,-70 8,-195 700,-195 700,-70 8,-70"/>
</g>
<g id="clust4" class="cluster">
<title>cluster_CapitalBudgetModule_imports</title>
<polygon fill="none" stroke="black" points="226,-78 226,-130 692,-130 692,-78 226,-78"/>
</g>
<g id="clust2" class="cluster">
<title>cluster_CapitalBudgetModule_declarations</title>
<polygon fill="none" stroke="black" points="16,-78 16,-130 218,-130 218,-78 16,-78"/>
</g>
<!-- CapitalBudgetAddComponent -->
<g id="node1" class="node">
<title>CapitalBudgetAddComponent</title>
<polygon fill="#ffffb3" stroke="black" points="210.32,-122 23.68,-122 23.68,-86 210.32,-86 210.32,-122"/>
<text text-anchor="middle" x="117" y="-99.8" font-family="Times,serif" font-size="14.00">CapitalBudgetAddComponent</text>
</g>
<!-- CapitalBudgetModule -->
<g id="node2" class="node">
<title>CapitalBudgetModule</title>
<polygon fill="#8dd3c7" stroke="black" points="419.43,-187 416.43,-191 395.43,-191 392.43,-187 278.57,-187 278.57,-151 419.43,-151 419.43,-187"/>
<text text-anchor="middle" x="349" y="-164.8" font-family="Times,serif" font-size="14.00">CapitalBudgetModule</text>
</g>
<!-- CapitalBudgetAddComponent&#45;&gt;CapitalBudgetModule -->
<g id="edge1" class="edge">
<title>CapitalBudgetAddComponent&#45;&gt;CapitalBudgetModule</title>
<path fill="none" stroke="black" d="M117,-122.11C117,-141.34 117,-169 117,-169 117,-169 268.76,-169 268.76,-169"/>
<polygon fill="black" stroke="black" points="268.76,-172.5 278.76,-169 268.76,-165.5 268.76,-172.5"/>
</g>
<!-- CapitalBudgetRoutingModule -->
<g id="node3" class="node">
<title>CapitalBudgetRoutingModule</title>
<polygon fill="#8dd3c7" stroke="black" points="683.55,-122 680.55,-126 659.55,-126 656.55,-122 498.45,-122 498.45,-86 683.55,-86 683.55,-122"/>
<text text-anchor="middle" x="591" y="-99.8" font-family="Times,serif" font-size="14.00">CapitalBudgetRoutingModule</text>
</g>
<!-- CapitalBudgetRoutingModule&#45;&gt;CapitalBudgetModule -->
<g id="edge2" class="edge">
<title>CapitalBudgetRoutingModule&#45;&gt;CapitalBudgetModule</title>
<path fill="none" stroke="black" d="M591,-122.11C591,-141.34 591,-169 591,-169 591,-169 429.32,-169 429.32,-169"/>
<polygon fill="black" stroke="black" points="429.32,-165.5 419.32,-169 429.32,-172.5 429.32,-165.5"/>
</g>
<!-- DevExtremeModule -->
<g id="node4" class="node">
<title>DevExtremeModule</title>
<polygon fill="#8dd3c7" stroke="black" points="480.29,-122 477.29,-126 456.29,-126 453.29,-122 349.71,-122 349.71,-86 480.29,-86 480.29,-122"/>
<text text-anchor="middle" x="415" y="-99.8" font-family="Times,serif" font-size="14.00">DevExtremeModule</text>
</g>
<!-- DevExtremeModule&#45;&gt;CapitalBudgetModule -->
<g id="edge3" class="edge">
<title>DevExtremeModule&#45;&gt;CapitalBudgetModule</title>
<path fill="none" stroke="black" d="M384.53,-122.11C384.53,-122.11 384.53,-140.99 384.53,-140.99"/>
<polygon fill="black" stroke="black" points="381.03,-140.99 384.53,-150.99 388.03,-140.99 381.03,-140.99"/>
</g>
<!-- SharedModule -->
<g id="node5" class="node">
<title>SharedModule</title>
<polygon fill="#8dd3c7" stroke="black" points="332.42,-122 329.42,-126 308.42,-126 305.42,-122 233.58,-122 233.58,-86 332.42,-86 332.42,-122"/>
<text text-anchor="middle" x="283" y="-99.8" font-family="Times,serif" font-size="14.00">SharedModule</text>
</g>
<!-- SharedModule&#45;&gt;CapitalBudgetModule -->
<g id="edge4" class="edge">
<title>SharedModule&#45;&gt;CapitalBudgetModule</title>
<path fill="none" stroke="black" d="M305.5,-122.11C305.5,-122.11 305.5,-140.99 305.5,-140.99"/>
<polygon fill="black" stroke="black" points="302,-140.99 305.5,-150.99 309,-140.99 302,-140.99"/>
</g>
</g>
</svg>
