<?xml version="1.0" encoding="UTF-8" standalone="no"?>
<!DOCTYPE svg PUBLIC "-//W3C//DTD SVG 1.1//EN"
 "http://www.w3.org/Graphics/SVG/1.1/DTD/svg11.dtd">
<!-- Generated by graphviz version 2.47.0 (20210316.0004)
 -->
<!-- Title: dependencies Pages: 1 -->
<svg width="780pt" height="211pt"
 viewBox="0.00 0.00 780.00 211.00" xmlns="http://www.w3.org/2000/svg" xmlns:xlink="http://www.w3.org/1999/xlink">
<g id="graph0" class="graph" transform="scale(1 1) rotate(0) translate(4 207)">
<title>dependencies</title>
<polygon fill="white" stroke="transparent" points="-4,4 -4,-207 776,-207 776,4 -4,4"/>
<text text-anchor="start" x="365.01" y="-42.4" font-family="Times-12" font-weight="bold" font-size="14.00">Legend</text>
<polygon fill="#ffffb3" stroke="transparent" points="152,-10 152,-30 172,-30 172,-10 152,-10"/>
<text text-anchor="start" x="175.63" y="-15.4" font-family="Times-12" font-size="14.00"> &#160;Declarations</text>
<polygon fill="#8dd3c7" stroke="transparent" points="265,-10 265,-30 285,-30 285,-10 265,-10"/>
<text text-anchor="start" x="288.73" y="-15.4" font-family="Times-12" font-size="14.00"> &#160;Module</text>
<polygon fill="#80b1d3" stroke="transparent" points="351,-10 351,-30 371,-30 371,-10 351,-10"/>
<text text-anchor="start" x="374.78" y="-15.4" font-family="Times-12" font-size="14.00"> &#160;Bootstrap</text>
<polygon fill="#fdb462" stroke="transparent" points="448,-10 448,-30 468,-30 468,-10 448,-10"/>
<text text-anchor="start" x="471.67" y="-15.4" font-family="Times-12" font-size="14.00"> &#160;Providers</text>
<polygon fill="#fb8072" stroke="transparent" points="544,-10 544,-30 564,-30 564,-10 544,-10"/>
<text text-anchor="start" x="567.73" y="-15.4" font-family="Times-12" font-size="14.00"> &#160;Exports</text>
<g id="clust1" class="cluster">
<title>cluster_HomeModule</title>
<polygon fill="none" stroke="black" stroke-dasharray="1,5" points="8,-70 8,-195 764,-195 764,-70 8,-70"/>
</g>
<g id="clust2" class="cluster">
<title>cluster_HomeModule_declarations</title>
<polygon fill="none" stroke="black" points="444,-78 444,-130 756,-130 756,-78 444,-78"/>
</g>
<g id="clust5" class="cluster">
<title>cluster_HomeModule_imports</title>
<polygon fill="none" stroke="black" points="16,-78 16,-130 436,-130 436,-78 16,-78"/>
</g>
<!-- BudgetListComponent -->
<g id="node1" class="node">
<title>BudgetListComponent</title>
<polygon fill="#ffffb3" stroke="black" points="747.55,-122 604.45,-122 604.45,-86 747.55,-86 747.55,-122"/>
<text text-anchor="middle" x="676" y="-99.8" font-family="Times,serif" font-size="14.00">BudgetListComponent</text>
</g>
<!-- HomeModule -->
<g id="node3" class="node">
<title>HomeModule</title>
<polygon fill="#8dd3c7" stroke="black" points="409.76,-187 406.76,-191 385.76,-191 382.76,-187 316.24,-187 316.24,-151 409.76,-151 409.76,-187"/>
<text text-anchor="middle" x="363" y="-164.8" font-family="Times,serif" font-size="14.00">HomeModule</text>
</g>
<!-- BudgetListComponent&#45;&gt;HomeModule -->
<g id="edge1" class="edge">
<title>BudgetListComponent&#45;&gt;HomeModule</title>
<path fill="none" stroke="black" d="M676,-122.28C676,-143.32 676,-175 676,-175 676,-175 419.86,-175 419.86,-175"/>
<polygon fill="black" stroke="black" points="419.86,-171.5 409.86,-175 419.86,-178.5 419.86,-171.5"/>
</g>
<!-- WelcomeComponent -->
<g id="node2" class="node">
<title>WelcomeComponent</title>
<polygon fill="#ffffb3" stroke="black" points="586.47,-122 451.53,-122 451.53,-86 586.47,-86 586.47,-122"/>
<text text-anchor="middle" x="519" y="-99.8" font-family="Times,serif" font-size="14.00">WelcomeComponent</text>
</g>
<!-- WelcomeComponent&#45;&gt;HomeModule -->
<g id="edge2" class="edge">
<title>WelcomeComponent&#45;&gt;HomeModule</title>
<path fill="none" stroke="black" d="M519,-122.02C519,-139.37 519,-163 519,-163 519,-163 419.81,-163 419.81,-163"/>
<polygon fill="black" stroke="black" points="419.81,-159.5 409.81,-163 419.81,-166.5 419.81,-159.5"/>
</g>
<!-- DevExtremeModule -->
<g id="node4" class="node">
<title>DevExtremeModule</title>
<polygon fill="#8dd3c7" stroke="black" points="428.29,-122 425.29,-126 404.29,-126 401.29,-122 297.71,-122 297.71,-86 428.29,-86 428.29,-122"/>
<text text-anchor="middle" x="363" y="-99.8" font-family="Times,serif" font-size="14.00">DevExtremeModule</text>
</g>
<!-- DevExtremeModule&#45;&gt;HomeModule -->
<g id="edge3" class="edge">
<title>DevExtremeModule&#45;&gt;HomeModule</title>
<path fill="none" stroke="black" d="M363,-122.11C363,-122.11 363,-140.99 363,-140.99"/>
<polygon fill="black" stroke="black" points="359.5,-140.99 363,-150.99 366.5,-140.99 359.5,-140.99"/>
</g>
<!-- HomeRoutingModule -->
<g id="node5" class="node">
<title>HomeRoutingModule</title>
<polygon fill="#8dd3c7" stroke="black" points="279.38,-122 276.38,-126 255.38,-126 252.38,-122 140.62,-122 140.62,-86 279.38,-86 279.38,-122"/>
<text text-anchor="middle" x="210" y="-99.8" font-family="Times,serif" font-size="14.00">HomeRoutingModule</text>
</g>
<!-- HomeRoutingModule&#45;&gt;HomeModule -->
<g id="edge4" class="edge">
<title>HomeRoutingModule&#45;&gt;HomeModule</title>
<path fill="none" stroke="black" d="M210,-122.02C210,-139.37 210,-163 210,-163 210,-163 305.85,-163 305.85,-163"/>
<polygon fill="black" stroke="black" points="305.85,-166.5 315.85,-163 305.85,-159.5 305.85,-166.5"/>
</g>
<!-- SharedModule -->
<g id="node6" class="node">
<title>SharedModule</title>
<polygon fill="#8dd3c7" stroke="black" points="122.42,-122 119.42,-126 98.42,-126 95.42,-122 23.58,-122 23.58,-86 122.42,-86 122.42,-122"/>
<text text-anchor="middle" x="73" y="-99.8" font-family="Times,serif" font-size="14.00">SharedModule</text>
</g>
<!-- SharedModule&#45;&gt;HomeModule -->
<g id="edge5" class="edge">
<title>SharedModule&#45;&gt;HomeModule</title>
<path fill="none" stroke="black" d="M73,-122.28C73,-143.32 73,-175 73,-175 73,-175 306.08,-175 306.08,-175"/>
<polygon fill="black" stroke="black" points="306.08,-178.5 316.08,-175 306.08,-171.5 306.08,-178.5"/>
</g>
</g>
</svg>
