<?xml version="1.0" encoding="UTF-8" standalone="no"?>
<!DOCTYPE svg PUBLIC "-//W3C//DTD SVG 1.1//EN"
 "http://www.w3.org/Graphics/SVG/1.1/DTD/svg11.dtd">
<!-- Generated by graphviz version 2.47.0 (20210316.0004)
 -->
<!-- Title: dependencies Pages: 1 -->
<svg width="2335pt" height="211pt"
 viewBox="0.00 0.00 2335.00 211.00" xmlns="http://www.w3.org/2000/svg" xmlns:xlink="http://www.w3.org/1999/xlink">
<g id="graph0" class="graph" transform="scale(1 1) rotate(0) translate(4 207)">
<title>dependencies</title>
<polygon fill="white" stroke="transparent" points="-4,4 -4,-207 2331,-207 2331,4 -4,4"/>
<text text-anchor="start" x="1142.51" y="-42.4" font-family="Times-12" font-weight="bold" font-size="14.00">Legend</text>
<polygon fill="#ffffb3" stroke="transparent" points="929.5,-10 929.5,-30 949.5,-30 949.5,-10 929.5,-10"/>
<text text-anchor="start" x="953.13" y="-15.4" font-family="Times-12" font-size="14.00"> &#160;Declarations</text>
<polygon fill="#8dd3c7" stroke="transparent" points="1042.5,-10 1042.5,-30 1062.5,-30 1062.5,-10 1042.5,-10"/>
<text text-anchor="start" x="1066.23" y="-15.4" font-family="Times-12" font-size="14.00"> &#160;Module</text>
<polygon fill="#80b1d3" stroke="transparent" points="1128.5,-10 1128.5,-30 1148.5,-30 1148.5,-10 1128.5,-10"/>
<text text-anchor="start" x="1152.28" y="-15.4" font-family="Times-12" font-size="14.00"> &#160;Bootstrap</text>
<polygon fill="#fdb462" stroke="transparent" points="1225.5,-10 1225.5,-30 1245.5,-30 1245.5,-10 1225.5,-10"/>
<text text-anchor="start" x="1249.17" y="-15.4" font-family="Times-12" font-size="14.00"> &#160;Providers</text>
<polygon fill="#fb8072" stroke="transparent" points="1321.5,-10 1321.5,-30 1341.5,-30 1341.5,-10 1321.5,-10"/>
<text text-anchor="start" x="1345.23" y="-15.4" font-family="Times-12" font-size="14.00"> &#160;Exports</text>
<g id="clust1" class="cluster">
<title>cluster_PbcpmModule</title>
<polygon fill="none" stroke="black" stroke-dasharray="1,5" points="8,-70 8,-195 2319,-195 2319,-70 8,-70"/>
</g>
<g id="clust2" class="cluster">
<title>cluster_PbcpmModule_declarations</title>
<polygon fill="none" stroke="black" points="448,-78 448,-130 2311,-130 2311,-78 448,-78"/>
</g>
<g id="clust13" class="cluster">
<title>cluster_PbcpmModule_imports</title>
<polygon fill="none" stroke="black" points="16,-78 16,-130 440,-130 440,-78 16,-78"/>
</g>
<!-- AssetCatagoryComponent -->
<g id="node1" class="node">
<title>AssetCatagoryComponent</title>
<polygon fill="#ffffb3" stroke="black" points="2302.75,-122 2139.25,-122 2139.25,-86 2302.75,-86 2302.75,-122"/>
<text text-anchor="middle" x="2221" y="-99.8" font-family="Times,serif" font-size="14.00">AssetCatagoryComponent</text>
</g>
<!-- PbcpmModule -->
<g id="node11" class="node">
<title>PbcpmModule</title>
<polygon fill="#8dd3c7" stroke="black" points="1205.44,-187 1202.44,-191 1181.44,-191 1178.44,-187 1106.56,-187 1106.56,-151 1205.44,-151 1205.44,-187"/>
<text text-anchor="middle" x="1156" y="-164.8" font-family="Times,serif" font-size="14.00">PbcpmModule</text>
</g>
<!-- AssetCatagoryComponent&#45;&gt;PbcpmModule -->
<g id="edge1" class="edge">
<title>AssetCatagoryComponent&#45;&gt;PbcpmModule</title>
<path fill="none" stroke="black" d="M2221,-122.09C2221,-145.13 2221,-182 2221,-182 2221,-182 1215.23,-182 1215.23,-182"/>
<polygon fill="black" stroke="black" points="1215.23,-178.5 1205.23,-182 1215.23,-185.5 1215.23,-178.5"/>
</g>
<!-- AssetsComponent -->
<g id="node2" class="node">
<title>AssetsComponent</title>
<polygon fill="#ffffb3" stroke="black" points="2120.88,-122 2003.12,-122 2003.12,-86 2120.88,-86 2120.88,-122"/>
<text text-anchor="middle" x="2062" y="-99.8" font-family="Times,serif" font-size="14.00">AssetsComponent</text>
</g>
<!-- AssetsComponent&#45;&gt;PbcpmModule -->
<g id="edge2" class="edge">
<title>AssetsComponent&#45;&gt;PbcpmModule</title>
<path fill="none" stroke="black" d="M2062,-122.04C2062,-143.66 2062,-177 2062,-177 2062,-177 1215.35,-177 1215.35,-177"/>
<polygon fill="black" stroke="black" points="1215.35,-173.5 1205.35,-177 1215.35,-180.5 1215.35,-173.5"/>
</g>
<!-- CalenderAddComponent -->
<g id="node3" class="node">
<title>CalenderAddComponent</title>
<polygon fill="#ffffb3" stroke="black" points="1984.97,-122 1829.03,-122 1829.03,-86 1984.97,-86 1984.97,-122"/>
<text text-anchor="middle" x="1907" y="-99.8" font-family="Times,serif" font-size="14.00">CalenderAddComponent</text>
</g>
<!-- CalenderAddComponent&#45;&gt;PbcpmModule -->
<g id="edge3" class="edge">
<title>CalenderAddComponent&#45;&gt;PbcpmModule</title>
<path fill="none" stroke="black" d="M1907,-122.22C1907,-142.37 1907,-172 1907,-172 1907,-172 1215.28,-172 1215.28,-172"/>
<polygon fill="black" stroke="black" points="1215.28,-168.5 1205.28,-172 1215.28,-175.5 1215.28,-168.5"/>
</g>
<!-- CalenderComponent -->
<g id="node4" class="node">
<title>CalenderComponent</title>
<polygon fill="#ffffb3" stroke="black" points="1810.86,-122 1679.14,-122 1679.14,-86 1810.86,-86 1810.86,-122"/>
<text text-anchor="middle" x="1745" y="-99.8" font-family="Times,serif" font-size="14.00">CalenderComponent</text>
</g>
<!-- CalenderComponent&#45;&gt;PbcpmModule -->
<g id="edge4" class="edge">
<title>CalenderComponent&#45;&gt;PbcpmModule</title>
<path fill="none" stroke="black" d="M1745,-122.22C1745,-140.83 1745,-167 1745,-167 1745,-167 1215.46,-167 1215.46,-167"/>
<polygon fill="black" stroke="black" points="1215.46,-163.5 1205.46,-167 1215.46,-170.5 1215.46,-163.5"/>
</g>
<!-- CommonBudgetTypeComponent -->
<g id="node5" class="node">
<title>CommonBudgetTypeComponent</title>
<polygon fill="#ffffb3" stroke="black" points="1661.16,-122 1458.84,-122 1458.84,-86 1661.16,-86 1661.16,-122"/>
<text text-anchor="middle" x="1560" y="-99.8" font-family="Times,serif" font-size="14.00">CommonBudgetTypeComponent</text>
</g>
<!-- CommonBudgetTypeComponent&#45;&gt;PbcpmModule -->
<g id="edge5" class="edge">
<title>CommonBudgetTypeComponent&#45;&gt;PbcpmModule</title>
<path fill="none" stroke="black" d="M1560,-122.03C1560,-139.06 1560,-162 1560,-162 1560,-162 1215.54,-162 1215.54,-162"/>
<polygon fill="black" stroke="black" points="1215.54,-158.5 1205.54,-162 1215.54,-165.5 1215.54,-158.5"/>
</g>
<!-- InitBudgetComponent -->
<g id="node6" class="node">
<title>InitBudgetComponent</title>
<polygon fill="#ffffb3" stroke="black" points="1440.72,-122 1299.28,-122 1299.28,-86 1440.72,-86 1440.72,-122"/>
<text text-anchor="middle" x="1370" y="-99.8" font-family="Times,serif" font-size="14.00">InitBudgetComponent</text>
</g>
<!-- InitBudgetComponent&#45;&gt;PbcpmModule -->
<g id="edge6" class="edge">
<title>InitBudgetComponent&#45;&gt;PbcpmModule</title>
<path fill="none" stroke="black" d="M1370,-122.24C1370,-137.57 1370,-157 1370,-157 1370,-157 1215.36,-157 1215.36,-157"/>
<polygon fill="black" stroke="black" points="1215.36,-153.5 1205.36,-157 1215.36,-160.5 1215.36,-153.5"/>
</g>
<!-- NoaAssignmentCommonBdgtComponent -->
<g id="node7" class="node">
<title>NoaAssignmentCommonBdgtComponent</title>
<polygon fill="#ffffb3" stroke="black" points="1281.38,-122 1030.62,-122 1030.62,-86 1281.38,-86 1281.38,-122"/>
<text text-anchor="middle" x="1156" y="-99.8" font-family="Times,serif" font-size="14.00">NoaAssignmentCommonBdgtComponent</text>
</g>
<!-- NoaAssignmentCommonBdgtComponent&#45;&gt;PbcpmModule -->
<g id="edge7" class="edge">
<title>NoaAssignmentCommonBdgtComponent&#45;&gt;PbcpmModule</title>
<path fill="none" stroke="black" d="M1156,-122.11C1156,-122.11 1156,-140.99 1156,-140.99"/>
<polygon fill="black" stroke="black" points="1152.5,-140.99 1156,-150.99 1159.5,-140.99 1152.5,-140.99"/>
</g>
<!-- NoaAssignmentComponent -->
<g id="node8" class="node">
<title>NoaAssignmentComponent</title>
<polygon fill="#ffffb3" stroke="black" points="1012.54,-122 841.46,-122 841.46,-86 1012.54,-86 1012.54,-122"/>
<text text-anchor="middle" x="927" y="-99.8" font-family="Times,serif" font-size="14.00">NoaAssignmentComponent</text>
</g>
<!-- NoaAssignmentComponent&#45;&gt;PbcpmModule -->
<g id="edge8" class="edge">
<title>NoaAssignmentComponent&#45;&gt;PbcpmModule</title>
<path fill="none" stroke="black" d="M927,-122.24C927,-137.57 927,-157 927,-157 927,-157 1096.59,-157 1096.59,-157"/>
<polygon fill="black" stroke="black" points="1096.59,-160.5 1106.59,-157 1096.59,-153.5 1096.59,-160.5"/>
</g>
<!-- OrgSetupComponent -->
<g id="node9" class="node">
<title>OrgSetupComponent</title>
<polygon fill="#ffffb3" stroke="black" points="823.49,-122 688.51,-122 688.51,-86 823.49,-86 823.49,-122"/>
<text text-anchor="middle" x="756" y="-99.8" font-family="Times,serif" font-size="14.00">OrgSetupComponent</text>
</g>
<!-- OrgSetupComponent&#45;&gt;PbcpmModule -->
<g id="edge9" class="edge">
<title>OrgSetupComponent&#45;&gt;PbcpmModule</title>
<path fill="none" stroke="black" d="M756,-122.03C756,-139.06 756,-162 756,-162 756,-162 1096.55,-162 1096.55,-162"/>
<polygon fill="black" stroke="black" points="1096.55,-165.5 1106.55,-162 1096.55,-158.5 1096.55,-165.5"/>
</g>
<!-- UserSettingAssignmentComponent -->
<g id="node10" class="node">
<title>UserSettingAssignmentComponent</title>
<polygon fill="#ffffb3" stroke="black" points="670.31,-122 455.69,-122 455.69,-86 670.31,-86 670.31,-122"/>
<text text-anchor="middle" x="563" y="-99.8" font-family="Times,serif" font-size="14.00">UserSettingAssignmentComponent</text>
</g>
<!-- UserSettingAssignmentComponent&#45;&gt;PbcpmModule -->
<g id="edge10" class="edge">
<title>UserSettingAssignmentComponent&#45;&gt;PbcpmModule</title>
<path fill="none" stroke="black" d="M563,-122.22C563,-140.83 563,-167 563,-167 563,-167 1096.71,-167 1096.71,-167"/>
<polygon fill="black" stroke="black" points="1096.71,-170.5 1106.71,-167 1096.71,-163.5 1096.71,-170.5"/>
</g>
<!-- DevExtremeModule -->
<g id="node12" class="node">
<title>DevExtremeModule</title>
<polygon fill="#8dd3c7" stroke="black" points="432.29,-122 429.29,-126 408.29,-126 405.29,-122 301.71,-122 301.71,-86 432.29,-86 432.29,-122"/>
<text text-anchor="middle" x="367" y="-99.8" font-family="Times,serif" font-size="14.00">DevExtremeModule</text>
</g>
<!-- DevExtremeModule&#45;&gt;PbcpmModule -->
<g id="edge11" class="edge">
<title>DevExtremeModule&#45;&gt;PbcpmModule</title>
<path fill="none" stroke="black" d="M367,-122.22C367,-142.37 367,-172 367,-172 367,-172 1096.64,-172 1096.64,-172"/>
<polygon fill="black" stroke="black" points="1096.64,-175.5 1106.64,-172 1096.64,-168.5 1096.64,-175.5"/>
</g>
<!-- PbcpmRoutingModule -->
<g id="node13" class="node">
<title>PbcpmRoutingModule</title>
<polygon fill="#8dd3c7" stroke="black" points="283.56,-122 280.56,-126 259.56,-126 256.56,-122 140.44,-122 140.44,-86 283.56,-86 283.56,-122"/>
<text text-anchor="middle" x="212" y="-99.8" font-family="Times,serif" font-size="14.00">PbcpmRoutingModule</text>
</g>
<!-- PbcpmRoutingModule&#45;&gt;PbcpmModule -->
<g id="edge12" class="edge">
<title>PbcpmRoutingModule&#45;&gt;PbcpmModule</title>
<path fill="none" stroke="black" d="M212,-122.04C212,-143.66 212,-177 212,-177 212,-177 1096.58,-177 1096.58,-177"/>
<polygon fill="black" stroke="black" points="1096.58,-180.5 1106.58,-177 1096.58,-173.5 1096.58,-180.5"/>
</g>
<!-- SharedModule -->
<g id="node14" class="node">
<title>SharedModule</title>
<polygon fill="#8dd3c7" stroke="black" points="122.42,-122 119.42,-126 98.42,-126 95.42,-122 23.58,-122 23.58,-86 122.42,-86 122.42,-122"/>
<text text-anchor="middle" x="73" y="-99.8" font-family="Times,serif" font-size="14.00">SharedModule</text>
</g>
<!-- SharedModule&#45;&gt;PbcpmModule -->
<g id="edge13" class="edge">
<title>SharedModule&#45;&gt;PbcpmModule</title>
<path fill="none" stroke="black" d="M73,-122.09C73,-145.13 73,-182 73,-182 73,-182 1096.65,-182 1096.65,-182"/>
<polygon fill="black" stroke="black" points="1096.65,-185.5 1106.65,-182 1096.65,-178.5 1096.65,-185.5"/>
</g>
</g>
</svg>
