<?xml version="1.0" encoding="UTF-8" standalone="no"?>
<!DOCTYPE svg PUBLIC "-//W3C//DTD SVG 1.1//EN"
 "http://www.w3.org/Graphics/SVG/1.1/DTD/svg11.dtd">
<!-- Generated by graphviz version 2.47.0 (20210316.0004)
 -->
<!-- Title: dependencies Pages: 1 -->
<svg width="4721pt" height="352pt"
 viewBox="0.00 0.00 4721.00 352.00" xmlns="http://www.w3.org/2000/svg" xmlns:xlink="http://www.w3.org/1999/xlink">
<g id="graph0" class="graph" transform="scale(1 1) rotate(0) translate(4 348)">
<title>dependencies</title>
<polygon fill="white" stroke="transparent" points="-4,4 -4,-348 4717,-348 4717,4 -4,4"/>
<text text-anchor="start" x="2335.51" y="-42.4" font-family="Times-12" font-weight="bold" font-size="14.00">Legend</text>
<polygon fill="#ffffb3" stroke="transparent" points="2122.5,-10 2122.5,-30 2142.5,-30 2142.5,-10 2122.5,-10"/>
<text text-anchor="start" x="2146.13" y="-15.4" font-family="Times-12" font-size="14.00"> &#160;Declarations</text>
<polygon fill="#8dd3c7" stroke="transparent" points="2235.5,-10 2235.5,-30 2255.5,-30 2255.5,-10 2235.5,-10"/>
<text text-anchor="start" x="2259.23" y="-15.4" font-family="Times-12" font-size="14.00"> &#160;Module</text>
<polygon fill="#80b1d3" stroke="transparent" points="2321.5,-10 2321.5,-30 2341.5,-30 2341.5,-10 2321.5,-10"/>
<text text-anchor="start" x="2345.28" y="-15.4" font-family="Times-12" font-size="14.00"> &#160;Bootstrap</text>
<polygon fill="#fdb462" stroke="transparent" points="2418.5,-10 2418.5,-30 2438.5,-30 2438.5,-10 2418.5,-10"/>
<text text-anchor="start" x="2442.17" y="-15.4" font-family="Times-12" font-size="14.00"> &#160;Providers</text>
<polygon fill="#fb8072" stroke="transparent" points="2514.5,-10 2514.5,-30 2534.5,-30 2534.5,-10 2514.5,-10"/>
<text text-anchor="start" x="2538.23" y="-15.4" font-family="Times-12" font-size="14.00"> &#160;Exports</text>
<g id="clust1" class="cluster">
<title>cluster_AppModule</title>
<polygon fill="none" stroke="black" stroke-dasharray="1,5" points="592,-70 592,-336 1607,-336 1607,-70 592,-70"/>
</g>
<g id="clust2" class="cluster">
<title>cluster_AppModule_declarations</title>
<polygon fill="none" stroke="black" points="600,-146 600,-198 1298,-198 1298,-146 600,-146"/>
</g>
<g id="clust8" class="cluster">
<title>cluster_AppModule_imports</title>
<polygon fill="none" stroke="black" points="1306,-78 1306,-198 1599,-198 1599,-78 1306,-78"/>
</g>
<g id="clust10" class="cluster">
<title>cluster_AppModule_bootstrap</title>
<polygon fill="none" stroke="black" points="1078,-276 1078,-328 1202,-328 1202,-276 1078,-276"/>
</g>
<g id="clust18" class="cluster">
<title>cluster_AuthModule</title>
<polygon fill="none" stroke="black" stroke-dasharray="1,5" points="4403,-70 4403,-198 4705,-198 4705,-70 4403,-70"/>
</g>
<g id="clust19" class="cluster">
<title>cluster_AuthModule_declarations</title>
<polygon fill="none" stroke="black" points="4567,-78 4567,-130 4697,-130 4697,-78 4567,-78"/>
</g>
<g id="clust21" class="cluster">
<title>cluster_AuthModule_imports</title>
<polygon fill="none" stroke="black" points="4411,-78 4411,-130 4559,-130 4559,-78 4411,-78"/>
</g>
<g id="clust31" class="cluster">
<title>cluster_BatchAdminModule</title>
<polygon fill="none" stroke="black" stroke-dasharray="1,5" points="8,-138 8,-263 568,-263 568,-138 8,-138"/>
</g>
<g id="clust32" class="cluster">
<title>cluster_BatchAdminModule_declarations</title>
<polygon fill="none" stroke="black" points="216,-146 216,-198 560,-198 560,-146 216,-146"/>
</g>
<g id="clust35" class="cluster">
<title>cluster_BatchAdminModule_imports</title>
<polygon fill="none" stroke="black" points="16,-146 16,-198 208,-198 208,-146 16,-146"/>
</g>
<g id="clust45" class="cluster">
<title>cluster_BatchModule</title>
<polygon fill="none" stroke="black" stroke-dasharray="1,5" points="1615,-138 1615,-263 4005,-263 4005,-138 1615,-138"/>
</g>
<g id="clust46" class="cluster">
<title>cluster_BatchModule_declarations</title>
<polygon fill="none" stroke="black" points="1785,-146 1785,-198 3997,-198 3997,-146 1785,-146"/>
</g>
<g id="clust60" class="cluster">
<title>cluster_BatchModule_imports</title>
<polygon fill="none" stroke="black" points="1623,-146 1623,-198 1777,-198 1777,-146 1623,-146"/>
</g>
<g id="clust76" class="cluster">
<title>cluster_HomeModule</title>
<polygon fill="none" stroke="black" stroke-dasharray="1,5" points="4067,-138 4067,-263 4395,-263 4395,-138 4067,-138"/>
</g>
<g id="clust77" class="cluster">
<title>cluster_HomeModule_declarations</title>
<polygon fill="none" stroke="black" points="4237,-146 4237,-198 4387,-198 4387,-146 4237,-146"/>
</g>
<g id="clust79" class="cluster">
<title>cluster_HomeModule_imports</title>
<polygon fill="none" stroke="black" points="4075,-146 4075,-198 4229,-198 4229,-146 4075,-146"/>
</g>
<!-- AppComponent -->
<g id="node1" class="node">
<title>AppComponent</title>
<polygon fill="#ffffb3" stroke="black" points="989.94,-190 884.06,-190 884.06,-154 989.94,-154 989.94,-190"/>
<text text-anchor="middle" x="937" y="-167.8" font-family="Times,serif" font-size="14.00">AppComponent</text>
</g>
<!-- AppModule -->
<g id="node6" class="node">
<title>AppModule</title>
<polygon fill="#8dd3c7" stroke="black" points="1181.66,-255 1178.66,-259 1157.66,-259 1154.66,-255 1098.34,-255 1098.34,-219 1181.66,-219 1181.66,-255"/>
<text text-anchor="middle" x="1140" y="-232.8" font-family="Times,serif" font-size="14.00">AppModule</text>
</g>
<!-- AppComponent&#45;&gt;AppModule -->
<g id="edge1" class="edge">
<title>AppComponent&#45;&gt;AppModule</title>
<path fill="none" stroke="black" d="M937,-190.03C937,-206.4 937,-228 937,-228 937,-228 1087.94,-228 1087.94,-228"/>
<polygon fill="black" stroke="black" points="1087.94,-231.5 1097.94,-228 1087.94,-224.5 1087.94,-231.5"/>
</g>
<!-- FooterComponent -->
<g id="node2" class="node">
<title>FooterComponent</title>
<polygon fill="#ffffb3" stroke="black" points="865.88,-190 748.12,-190 748.12,-154 865.88,-154 865.88,-190"/>
<text text-anchor="middle" x="807" y="-167.8" font-family="Times,serif" font-size="14.00">FooterComponent</text>
</g>
<!-- FooterComponent&#45;&gt;AppModule -->
<g id="edge2" class="edge">
<title>FooterComponent&#45;&gt;AppModule</title>
<path fill="none" stroke="black" d="M807,-190.11C807,-209.34 807,-237 807,-237 807,-237 1088.16,-237 1088.16,-237"/>
<polygon fill="black" stroke="black" points="1088.16,-240.5 1098.16,-237 1088.16,-233.5 1088.16,-240.5"/>
</g>
<!-- HeaderComponent -->
<g id="node3" class="node">
<title>HeaderComponent</title>
<polygon fill="#ffffb3" stroke="black" points="729.74,-190 608.26,-190 608.26,-154 729.74,-154 729.74,-190"/>
<text text-anchor="middle" x="669" y="-167.8" font-family="Times,serif" font-size="14.00">HeaderComponent</text>
</g>
<!-- HeaderComponent&#45;&gt;AppModule -->
<g id="edge3" class="edge">
<title>HeaderComponent&#45;&gt;AppModule</title>
<path fill="none" stroke="black" d="M669,-190.29C669,-212.21 669,-246 669,-246 669,-246 1088.2,-246 1088.2,-246"/>
<polygon fill="black" stroke="black" points="1088.2,-249.5 1098.2,-246 1088.2,-242.5 1088.2,-249.5"/>
</g>
<!-- MainLayoutComponent -->
<g id="node4" class="node">
<title>MainLayoutComponent</title>
<polygon fill="#ffffb3" stroke="black" points="1290.04,-190 1139.96,-190 1139.96,-154 1290.04,-154 1290.04,-190"/>
<text text-anchor="middle" x="1215" y="-167.8" font-family="Times,serif" font-size="14.00">MainLayoutComponent</text>
</g>
<!-- MainLayoutComponent&#45;&gt;AppModule -->
<g id="edge4" class="edge">
<title>MainLayoutComponent&#45;&gt;AppModule</title>
<path fill="none" stroke="black" d="M1160.78,-190.11C1160.78,-190.11 1160.78,-208.99 1160.78,-208.99"/>
<polygon fill="black" stroke="black" points="1157.28,-208.99 1160.78,-218.99 1164.28,-208.99 1157.28,-208.99"/>
</g>
<!-- MenuComponent -->
<g id="node5" class="node">
<title>MenuComponent</title>
<polygon fill="#ffffb3" stroke="black" points="1121.99,-190 1008.01,-190 1008.01,-154 1121.99,-154 1121.99,-190"/>
<text text-anchor="middle" x="1065" y="-167.8" font-family="Times,serif" font-size="14.00">MenuComponent</text>
</g>
<!-- MenuComponent&#45;&gt;AppModule -->
<g id="edge5" class="edge">
<title>MenuComponent&#45;&gt;AppModule</title>
<path fill="none" stroke="black" d="M1110.08,-190.11C1110.08,-190.11 1110.08,-208.99 1110.08,-208.99"/>
<polygon fill="black" stroke="black" points="1106.58,-208.99 1110.08,-218.99 1113.58,-208.99 1106.58,-208.99"/>
</g>
<!-- AppComponent  -->
<g id="node10" class="node">
<title>AppComponent </title>
<polygon fill="#80b1d3" stroke="black" points="1194.44,-320 1085.56,-320 1085.56,-284 1194.44,-284 1194.44,-320"/>
<text text-anchor="middle" x="1140" y="-297.8" font-family="Times,serif" font-size="14.00">AppComponent </text>
</g>
<!-- AppModule&#45;&gt;AppComponent  -->
<g id="edge9" class="edge">
<title>AppModule&#45;&gt;AppComponent </title>
<path fill="none" stroke="black" stroke-dasharray="1,5" d="M1140,-255.11C1140,-255.11 1140,-273.99 1140,-273.99"/>
<polygon fill="black" stroke="black" points="1136.5,-273.99 1140,-283.99 1143.5,-273.99 1136.5,-273.99"/>
</g>
<!-- AppRoutingModule -->
<g id="node7" class="node">
<title>AppRoutingModule</title>
<polygon fill="#8dd3c7" stroke="black" points="1442.27,-122 1439.27,-126 1418.27,-126 1415.27,-122 1313.73,-122 1313.73,-86 1442.27,-86 1442.27,-122"/>
<text text-anchor="middle" x="1378" y="-99.8" font-family="Times,serif" font-size="14.00">AppRoutingModule</text>
</g>
<!-- AppRoutingModule&#45;&gt;AppModule -->
<g id="edge6" class="edge">
<title>AppRoutingModule&#45;&gt;AppModule</title>
<path fill="none" stroke="black" d="M1313.71,-104C1240.49,-104 1130.86,-104 1130.86,-104 1130.86,-104 1130.86,-208.79 1130.86,-208.79"/>
<polygon fill="black" stroke="black" points="1127.36,-208.79 1130.86,-218.79 1134.36,-208.79 1127.36,-208.79"/>
</g>
<!-- DevExtremeModule -->
<g id="node8" class="node">
<title>DevExtremeModule</title>
<polygon fill="#8dd3c7" stroke="black" points="1591.29,-122 1588.29,-126 1567.29,-126 1564.29,-122 1460.71,-122 1460.71,-86 1591.29,-86 1591.29,-122"/>
<text text-anchor="middle" x="1526" y="-99.8" font-family="Times,serif" font-size="14.00">DevExtremeModule</text>
</g>
<!-- DevExtremeModule&#45;&gt;AppModule -->
<g id="edge7" class="edge">
<title>DevExtremeModule&#45;&gt;AppModule</title>
<path fill="none" stroke="black" d="M1471.48,-122.07C1471.48,-155.36 1471.48,-223 1471.48,-223 1471.48,-223 1191.98,-223 1191.98,-223"/>
<polygon fill="black" stroke="black" points="1191.98,-219.5 1181.98,-223 1191.98,-226.5 1191.98,-219.5"/>
</g>
<!-- SharedModule -->
<g id="node9" class="node">
<title>SharedModule</title>
<polygon fill="#8dd3c7" stroke="black" points="1575.42,-190 1572.42,-194 1551.42,-194 1548.42,-190 1476.58,-190 1476.58,-154 1575.42,-154 1575.42,-190"/>
<text text-anchor="middle" x="1526" y="-167.8" font-family="Times,serif" font-size="14.00">SharedModule</text>
</g>
<!-- DevExtremeModule&#45;&gt;SharedModule -->
<g id="edge38" class="edge">
<title>DevExtremeModule&#45;&gt;SharedModule</title>
<path fill="none" stroke="black" d="M1526,-122.22C1526,-122.22 1526,-143.73 1526,-143.73"/>
<polygon fill="black" stroke="black" points="1522.5,-143.73 1526,-153.73 1529.5,-143.73 1522.5,-143.73"/>
</g>
<!-- AuthModule -->
<g id="node12" class="node">
<title>AuthModule</title>
<polygon fill="#8dd3c7" stroke="black" points="4528.55,-190 4525.55,-194 4504.55,-194 4501.55,-190 4441.45,-190 4441.45,-154 4528.55,-154 4528.55,-190"/>
<text text-anchor="middle" x="4485" y="-167.8" font-family="Times,serif" font-size="14.00">AuthModule</text>
</g>
<!-- DevExtremeModule&#45;&gt;AuthModule -->
<g id="edge12" class="edge">
<title>DevExtremeModule&#45;&gt;AuthModule</title>
<path fill="none" stroke="black" d="M1591.41,-98C2019.06,-98 4399.08,-98 4399.08,-98 4399.08,-98 4399.08,-172 4399.08,-172 4399.08,-172 4431.28,-172 4431.28,-172"/>
<polygon fill="black" stroke="black" points="4431.28,-175.5 4441.28,-172 4431.28,-168.5 4431.28,-175.5"/>
</g>
<!-- BatchAdminModule -->
<g id="node16" class="node">
<title>BatchAdminModule</title>
<polygon fill="#8dd3c7" stroke="black" points="540.59,-255 537.59,-259 516.59,-259 513.59,-255 409.41,-255 409.41,-219 540.59,-219 540.59,-255"/>
<text text-anchor="middle" x="475" y="-232.8" font-family="Times,serif" font-size="14.00">BatchAdminModule</text>
</g>
<!-- DevExtremeModule&#45;&gt;BatchAdminModule -->
<g id="edge16" class="edge">
<title>DevExtremeModule&#45;&gt;BatchAdminModule</title>
<path fill="none" stroke="black" d="M1466.16,-122.06C1466.16,-151.11 1466.16,-205 1466.16,-205 1466.16,-205 475,-205 475,-205 475,-205 475,-208.76 475,-208.76"/>
<polygon fill="black" stroke="black" points="471.5,-208.76 475,-218.76 478.5,-208.76 471.5,-208.76"/>
</g>
<!-- BatchModule -->
<g id="node31" class="node">
<title>BatchModule</title>
<polygon fill="#8dd3c7" stroke="black" points="2855.21,-255 2852.21,-259 2831.21,-259 2828.21,-255 2762.79,-255 2762.79,-219 2855.21,-219 2855.21,-255"/>
<text text-anchor="middle" x="2809" y="-232.8" font-family="Times,serif" font-size="14.00">BatchModule</text>
</g>
<!-- DevExtremeModule&#45;&gt;BatchModule -->
<g id="edge32" class="edge">
<title>DevExtremeModule&#45;&gt;BatchModule</title>
<path fill="none" stroke="black" d="M1583.18,-122.07C1583.18,-160.94 1583.18,-249 1583.18,-249 1583.18,-249 2752.81,-249 2752.81,-249"/>
<polygon fill="black" stroke="black" points="2752.81,-252.5 2762.81,-249 2752.81,-245.5 2752.81,-252.5"/>
</g>
<!-- HomeModule -->
<g id="node34" class="node">
<title>HomeModule</title>
<polygon fill="#8dd3c7" stroke="black" points="4183.76,-255 4180.76,-259 4159.76,-259 4156.76,-255 4090.24,-255 4090.24,-219 4183.76,-219 4183.76,-255"/>
<text text-anchor="middle" x="4137" y="-232.8" font-family="Times,serif" font-size="14.00">HomeModule</text>
</g>
<!-- DevExtremeModule&#45;&gt;HomeModule -->
<g id="edge35" class="edge">
<title>DevExtremeModule&#45;&gt;HomeModule</title>
<path fill="none" stroke="black" d="M1591.24,-110C1934.17,-110 3512.42,-110 3512.42,-110 3512.42,-110 3512.42,-224 3512.42,-224 3512.42,-224 4080.05,-224 4080.05,-224"/>
<polygon fill="black" stroke="black" points="4080.05,-227.5 4090.05,-224 4080.05,-220.5 4080.05,-227.5"/>
</g>
<!-- SharedModule&#45;&gt;AppModule -->
<g id="edge8" class="edge">
<title>SharedModule&#45;&gt;AppModule</title>
<path fill="none" stroke="black" d="M1535.84,-190.28C1535.84,-205.95 1535.84,-226 1535.84,-226 1535.84,-226 1191.99,-226 1191.99,-226"/>
<polygon fill="black" stroke="black" points="1191.99,-222.5 1181.99,-226 1191.99,-229.5 1191.99,-222.5"/>
</g>
<!-- SharedModule&#45;&gt;BatchAdminModule -->
<g id="edge17" class="edge">
<title>SharedModule&#45;&gt;BatchAdminModule</title>
<path fill="none" stroke="black" d="M1496.47,-190.13C1496.47,-200.71 1496.47,-212 1496.47,-212 1496.47,-212 507.77,-212 507.77,-212 507.77,-212 507.77,-212.68 507.77,-212.68"/>
<polygon fill="black" stroke="black" points="504.27,-208.83 507.77,-218.83 511.27,-208.83 504.27,-208.83"/>
</g>
<!-- SharedModule&#45;&gt;BatchModule -->
<g id="edge33" class="edge">
<title>SharedModule&#45;&gt;BatchModule</title>
<path fill="none" stroke="black" d="M1555.53,-190.15C1555.53,-213.76 1555.53,-252 1555.53,-252 1555.53,-252 2752.53,-252 2752.53,-252"/>
<polygon fill="black" stroke="black" points="2752.53,-255.5 2762.53,-252 2752.53,-248.5 2752.53,-255.5"/>
</g>
<!-- SharedModule&#45;&gt;HomeModule -->
<g id="edge37" class="edge">
<title>SharedModule&#45;&gt;HomeModule</title>
<path fill="none" stroke="black" d="M1516.16,-190.06C1516.16,-194.49 1516.16,-198 1516.16,-198 1516.16,-198 4121.37,-198 4121.37,-198 4121.37,-198 4121.37,-208.87 4121.37,-208.87"/>
<polygon fill="black" stroke="black" points="4117.87,-208.87 4121.37,-218.87 4124.87,-208.87 4117.87,-208.87"/>
</g>
<!-- LoginComponent -->
<g id="node11" class="node">
<title>LoginComponent</title>
<polygon fill="#ffffb3" stroke="black" points="4689.28,-122 4574.72,-122 4574.72,-86 4689.28,-86 4689.28,-122"/>
<text text-anchor="middle" x="4632" y="-99.8" font-family="Times,serif" font-size="14.00">LoginComponent</text>
</g>
<!-- LoginComponent&#45;&gt;AuthModule -->
<g id="edge10" class="edge">
<title>LoginComponent&#45;&gt;AuthModule</title>
<path fill="none" stroke="black" d="M4632,-122.22C4632,-142.37 4632,-172 4632,-172 4632,-172 4538.71,-172 4538.71,-172"/>
<polygon fill="black" stroke="black" points="4538.71,-168.5 4528.71,-172 4538.71,-175.5 4538.71,-168.5"/>
</g>
<!-- AuthRoutingModule -->
<g id="node13" class="node">
<title>AuthRoutingModule</title>
<polygon fill="#8dd3c7" stroke="black" points="4551.17,-122 4548.17,-126 4527.17,-126 4524.17,-122 4418.83,-122 4418.83,-86 4551.17,-86 4551.17,-122"/>
<text text-anchor="middle" x="4485" y="-99.8" font-family="Times,serif" font-size="14.00">AuthRoutingModule</text>
</g>
<!-- AuthRoutingModule&#45;&gt;AuthModule -->
<g id="edge11" class="edge">
<title>AuthRoutingModule&#45;&gt;AuthModule</title>
<path fill="none" stroke="black" d="M4485,-122.22C4485,-122.22 4485,-143.73 4485,-143.73"/>
<polygon fill="black" stroke="black" points="4481.5,-143.73 4485,-153.73 4488.5,-143.73 4481.5,-143.73"/>
</g>
<!-- FormulaItemComponent -->
<g id="node14" class="node">
<title>FormulaItemComponent</title>
<polygon fill="#ffffb3" stroke="black" points="552.43,-190 397.57,-190 397.57,-154 552.43,-154 552.43,-190"/>
<text text-anchor="middle" x="475" y="-167.8" font-family="Times,serif" font-size="14.00">FormulaItemComponent</text>
</g>
<!-- FormulaItemComponent&#45;&gt;BatchAdminModule -->
<g id="edge13" class="edge">
<title>FormulaItemComponent&#45;&gt;BatchAdminModule</title>
<path fill="none" stroke="black" d="M442.23,-190.11C442.23,-190.11 442.23,-208.99 442.23,-208.99"/>
<polygon fill="black" stroke="black" points="438.73,-208.99 442.23,-218.99 445.73,-208.99 438.73,-208.99"/>
</g>
<!-- GlobalParamComponent -->
<g id="node15" class="node">
<title>GlobalParamComponent</title>
<polygon fill="#ffffb3" stroke="black" points="379.7,-190 224.3,-190 224.3,-154 379.7,-154 379.7,-190"/>
<text text-anchor="middle" x="302" y="-167.8" font-family="Times,serif" font-size="14.00">GlobalParamComponent</text>
</g>
<!-- GlobalParamComponent&#45;&gt;BatchAdminModule -->
<g id="edge14" class="edge">
<title>GlobalParamComponent&#45;&gt;BatchAdminModule</title>
<path fill="none" stroke="black" d="M302,-190.02C302,-207.37 302,-231 302,-231 302,-231 399.1,-231 399.1,-231"/>
<polygon fill="black" stroke="black" points="399.1,-234.5 409.1,-231 399.1,-227.5 399.1,-234.5"/>
</g>
<!-- BatchAdminRoutingModule -->
<g id="node17" class="node">
<title>BatchAdminRoutingModule</title>
<polygon fill="#8dd3c7" stroke="black" points="200.21,-190 197.21,-194 176.21,-194 173.21,-190 23.79,-190 23.79,-154 200.21,-154 200.21,-190"/>
<text text-anchor="middle" x="112" y="-167.8" font-family="Times,serif" font-size="14.00">BatchAdminRoutingModule</text>
</g>
<!-- BatchAdminRoutingModule&#45;&gt;BatchAdminModule -->
<g id="edge15" class="edge">
<title>BatchAdminRoutingModule&#45;&gt;BatchAdminModule</title>
<path fill="none" stroke="black" d="M112,-190.28C112,-211.32 112,-243 112,-243 112,-243 399.26,-243 399.26,-243"/>
<polygon fill="black" stroke="black" points="399.26,-246.5 409.26,-243 399.26,-239.5 399.26,-246.5"/>
</g>
<!-- BatchDetailsComponent -->
<g id="node18" class="node">
<title>BatchDetailsComponent</title>
<polygon fill="#ffffb3" stroke="black" points="2278.64,-190 2125.36,-190 2125.36,-154 2278.64,-154 2278.64,-190"/>
<text text-anchor="middle" x="2202" y="-167.8" font-family="Times,serif" font-size="14.00">BatchDetailsComponent</text>
</g>
<!-- BatchDetailsComponent&#45;&gt;BatchModule -->
<g id="edge18" class="edge">
<title>BatchDetailsComponent&#45;&gt;BatchModule</title>
<path fill="none" stroke="black" d="M2202,-190.17C2202,-209.09 2202,-236 2202,-236 2202,-236 2752.88,-236 2752.88,-236"/>
<polygon fill="black" stroke="black" points="2752.88,-239.5 2762.88,-236 2752.88,-232.5 2752.88,-239.5"/>
</g>
<!-- BatchViewComponent -->
<g id="node19" class="node">
<title>BatchViewComponent</title>
<polygon fill="#ffffb3" stroke="black" points="2107.31,-190 1962.69,-190 1962.69,-154 2107.31,-154 2107.31,-190"/>
<text text-anchor="middle" x="2035" y="-167.8" font-family="Times,serif" font-size="14.00">BatchViewComponent</text>
</g>
<!-- BatchViewComponent&#45;&gt;BatchModule -->
<g id="edge19" class="edge">
<title>BatchViewComponent&#45;&gt;BatchModule</title>
<path fill="none" stroke="black" d="M2035,-190.31C2035,-210.15 2035,-239 2035,-239 2035,-239 2752.61,-239 2752.61,-239"/>
<polygon fill="black" stroke="black" points="2752.61,-242.5 2762.61,-239 2752.61,-235.5 2752.61,-242.5"/>
</g>
<!-- BilletDetailsComponent -->
<g id="node20" class="node">
<title>BilletDetailsComponent</title>
<polygon fill="#ffffb3" stroke="black" points="1945.1,-190 1792.9,-190 1792.9,-154 1945.1,-154 1945.1,-190"/>
<text text-anchor="middle" x="1869" y="-167.8" font-family="Times,serif" font-size="14.00">BilletDetailsComponent</text>
</g>
<!-- BilletDetailsComponent&#45;&gt;BatchModule -->
<g id="edge20" class="edge">
<title>BilletDetailsComponent&#45;&gt;BatchModule</title>
<path fill="none" stroke="black" d="M1869,-190.03C1869,-210.77 1869,-242 1869,-242 1869,-242 2752.71,-242 2752.71,-242"/>
<polygon fill="black" stroke="black" points="2752.71,-245.5 2762.71,-242 2752.71,-238.5 2752.71,-245.5"/>
</g>
<!-- ByproductComponent -->
<g id="node21" class="node">
<title>ByproductComponent</title>
<polygon fill="#ffffb3" stroke="black" points="3989.44,-190 3848.56,-190 3848.56,-154 3989.44,-154 3989.44,-190"/>
<text text-anchor="middle" x="3919" y="-167.8" font-family="Times,serif" font-size="14.00">ByproductComponent</text>
</g>
<!-- ByproductComponent&#45;&gt;BatchModule -->
<g id="edge21" class="edge">
<title>ByproductComponent&#45;&gt;BatchModule</title>
<path fill="none" stroke="black" d="M3919,-190.32C3919,-213.66 3919,-251 3919,-251 3919,-251 2865.28,-251 2865.28,-251"/>
<polygon fill="black" stroke="black" points="2865.28,-247.5 2855.28,-251 2865.28,-254.5 2865.28,-247.5"/>
</g>
<!-- CreateBatchComponent -->
<g id="node22" class="node">
<title>CreateBatchComponent</title>
<polygon fill="#ffffb3" stroke="black" points="3831.02,-190 3680.98,-190 3680.98,-154 3831.02,-154 3831.02,-190"/>
<text text-anchor="middle" x="3756" y="-167.8" font-family="Times,serif" font-size="14.00">CreateBatchComponent</text>
</g>
<!-- CreateBatchComponent&#45;&gt;BatchModule -->
<g id="edge22" class="edge">
<title>CreateBatchComponent&#45;&gt;BatchModule</title>
<path fill="none" stroke="black" d="M3756,-190.29C3756,-212.21 3756,-246 3756,-246 3756,-246 2865.32,-246 2865.32,-246"/>
<polygon fill="black" stroke="black" points="2865.32,-242.5 2855.32,-246 2865.32,-249.5 2865.32,-242.5"/>
</g>
<!-- FakeBatchComponent -->
<g id="node23" class="node">
<title>FakeBatchComponent</title>
<polygon fill="#ffffb3" stroke="black" points="3662.7,-190 3521.3,-190 3521.3,-154 3662.7,-154 3662.7,-190"/>
<text text-anchor="middle" x="3592" y="-167.8" font-family="Times,serif" font-size="14.00">FakeBatchComponent</text>
</g>
<!-- FakeBatchComponent&#45;&gt;BatchModule -->
<g id="edge23" class="edge">
<title>FakeBatchComponent&#45;&gt;BatchModule</title>
<path fill="none" stroke="black" d="M3592,-190.03C3592,-210.77 3592,-242 3592,-242 3592,-242 2865.35,-242 2865.35,-242"/>
<polygon fill="black" stroke="black" points="2865.35,-238.5 2855.35,-242 2865.35,-245.5 2865.35,-238.5"/>
</g>
<!-- IngredientComponent -->
<g id="node24" class="node">
<title>IngredientComponent</title>
<polygon fill="#ffffb3" stroke="black" points="3503.36,-190 3364.64,-190 3364.64,-154 3503.36,-154 3503.36,-190"/>
<text text-anchor="middle" x="3434" y="-167.8" font-family="Times,serif" font-size="14.00">IngredientComponent</text>
</g>
<!-- IngredientComponent&#45;&gt;BatchModule -->
<g id="edge24" class="edge">
<title>IngredientComponent&#45;&gt;BatchModule</title>
<path fill="none" stroke="black" d="M3434,-190.11C3434,-209.34 3434,-237 3434,-237 3434,-237 2865.21,-237 2865.21,-237"/>
<polygon fill="black" stroke="black" points="2865.21,-233.5 2855.21,-237 2865.21,-240.5 2865.21,-233.5"/>
</g>
<!-- PhysicalInspectionComponent -->
<g id="node25" class="node">
<title>PhysicalInspectionComponent</title>
<polygon fill="#ffffb3" stroke="black" points="3346.59,-190 3159.41,-190 3159.41,-154 3346.59,-154 3346.59,-190"/>
<text text-anchor="middle" x="3253" y="-167.8" font-family="Times,serif" font-size="14.00">PhysicalInspectionComponent</text>
</g>
<!-- PhysicalInspectionComponent&#45;&gt;BatchModule -->
<g id="edge25" class="edge">
<title>PhysicalInspectionComponent&#45;&gt;BatchModule</title>
<path fill="none" stroke="black" d="M3253,-190.3C3253,-208.27 3253,-233 3253,-233 3253,-233 2865.26,-233 2865.26,-233"/>
<polygon fill="black" stroke="black" points="2865.26,-229.5 2855.26,-233 2865.26,-236.5 2865.26,-229.5"/>
</g>
<!-- ProcessParameterComponent -->
<g id="node26" class="node">
<title>ProcessParameterComponent</title>
<polygon fill="#ffffb3" stroke="black" points="3141.34,-190 2960.66,-190 2960.66,-154 3141.34,-154 3141.34,-190"/>
<text text-anchor="middle" x="3051" y="-167.8" font-family="Times,serif" font-size="14.00">ProcessParameterComponent</text>
</g>
<!-- ProcessParameterComponent&#45;&gt;BatchModule -->
<g id="edge26" class="edge">
<title>ProcessParameterComponent&#45;&gt;BatchModule</title>
<path fill="none" stroke="black" d="M3051,-190.03C3051,-206.4 3051,-228 3051,-228 3051,-228 2865.37,-228 2865.37,-228"/>
<polygon fill="black" stroke="black" points="2865.37,-224.5 2855.37,-228 2865.37,-231.5 2865.37,-224.5"/>
</g>
<!-- ProductComponent -->
<g id="node27" class="node">
<title>ProductComponent</title>
<polygon fill="#ffffb3" stroke="black" points="2942.38,-190 2817.62,-190 2817.62,-154 2942.38,-154 2942.38,-190"/>
<text text-anchor="middle" x="2880" y="-167.8" font-family="Times,serif" font-size="14.00">ProductComponent</text>
</g>
<!-- ProductComponent&#45;&gt;BatchModule -->
<g id="edge27" class="edge">
<title>ProductComponent&#45;&gt;BatchModule</title>
<path fill="none" stroke="black" d="M2836.33,-190.11C2836.33,-190.11 2836.33,-208.99 2836.33,-208.99"/>
<polygon fill="black" stroke="black" points="2832.83,-208.99 2836.33,-218.99 2839.83,-208.99 2832.83,-208.99"/>
</g>
<!-- QualityComponent -->
<g id="node28" class="node">
<title>QualityComponent</title>
<polygon fill="#ffffb3" stroke="black" points="2799.83,-190 2676.17,-190 2676.17,-154 2799.83,-154 2799.83,-190"/>
<text text-anchor="middle" x="2738" y="-167.8" font-family="Times,serif" font-size="14.00">QualityComponent</text>
</g>
<!-- QualityComponent&#45;&gt;BatchModule -->
<g id="edge28" class="edge">
<title>QualityComponent&#45;&gt;BatchModule</title>
<path fill="none" stroke="black" d="M2781.28,-190.11C2781.28,-190.11 2781.28,-208.99 2781.28,-208.99"/>
<polygon fill="black" stroke="black" points="2777.78,-208.99 2781.28,-218.99 2784.78,-208.99 2777.78,-208.99"/>
</g>
<!-- ResourceComponent -->
<g id="node29" class="node">
<title>ResourceComponent</title>
<polygon fill="#ffffb3" stroke="black" points="2658.92,-190 2525.08,-190 2525.08,-154 2658.92,-154 2658.92,-190"/>
<text text-anchor="middle" x="2592" y="-167.8" font-family="Times,serif" font-size="14.00">ResourceComponent</text>
</g>
<!-- ResourceComponent&#45;&gt;BatchModule -->
<g id="edge29" class="edge">
<title>ResourceComponent&#45;&gt;BatchModule</title>
<path fill="none" stroke="black" d="M2592,-190.04C2592,-206.73 2592,-229 2592,-229 2592,-229 2752.71,-229 2752.71,-229"/>
<polygon fill="black" stroke="black" points="2752.71,-232.5 2762.71,-229 2752.71,-225.5 2752.71,-232.5"/>
</g>
<!-- ValidationFailedPopupComponent -->
<g id="node30" class="node">
<title>ValidationFailedPopupComponent</title>
<polygon fill="#ffffb3" stroke="black" points="2507.71,-190 2296.29,-190 2296.29,-154 2507.71,-154 2507.71,-190"/>
<text text-anchor="middle" x="2402" y="-167.8" font-family="Times,serif" font-size="14.00">ValidationFailedPopupComponent</text>
</g>
<!-- ValidationFailedPopupComponent&#45;&gt;BatchModule -->
<g id="edge30" class="edge">
<title>ValidationFailedPopupComponent&#45;&gt;BatchModule</title>
<path fill="none" stroke="black" d="M2402,-190.3C2402,-208.27 2402,-233 2402,-233 2402,-233 2752.71,-233 2752.71,-233"/>
<polygon fill="black" stroke="black" points="2752.71,-236.5 2762.71,-233 2752.71,-229.5 2752.71,-236.5"/>
</g>
<!-- BatchRoutingModule -->
<g id="node32" class="node">
<title>BatchRoutingModule</title>
<polygon fill="#8dd3c7" stroke="black" points="1768.82,-190 1765.82,-194 1744.82,-194 1741.82,-190 1631.18,-190 1631.18,-154 1768.82,-154 1768.82,-190"/>
<text text-anchor="middle" x="1700" y="-167.8" font-family="Times,serif" font-size="14.00">BatchRoutingModule</text>
</g>
<!-- BatchRoutingModule&#45;&gt;BatchModule -->
<g id="edge31" class="edge">
<title>BatchRoutingModule&#45;&gt;BatchModule</title>
<path fill="none" stroke="black" d="M1700,-190.29C1700,-212.21 1700,-246 1700,-246 1700,-246 2752.76,-246 2752.76,-246"/>
<polygon fill="black" stroke="black" points="2752.76,-249.5 2762.76,-246 2752.76,-242.5 2752.76,-249.5"/>
</g>
<!-- WelcomeComponent -->
<g id="node33" class="node">
<title>WelcomeComponent</title>
<polygon fill="#ffffb3" stroke="black" points="4379.47,-190 4244.53,-190 4244.53,-154 4379.47,-154 4379.47,-190"/>
<text text-anchor="middle" x="4312" y="-167.8" font-family="Times,serif" font-size="14.00">WelcomeComponent</text>
</g>
<!-- WelcomeComponent&#45;&gt;HomeModule -->
<g id="edge34" class="edge">
<title>WelcomeComponent&#45;&gt;HomeModule</title>
<path fill="none" stroke="black" d="M4312,-190.11C4312,-209.34 4312,-237 4312,-237 4312,-237 4193.9,-237 4193.9,-237"/>
<polygon fill="black" stroke="black" points="4193.9,-233.5 4183.9,-237 4193.9,-240.5 4193.9,-233.5"/>
</g>
<!-- HomeRoutingModule -->
<g id="node35" class="node">
<title>HomeRoutingModule</title>
<polygon fill="#8dd3c7" stroke="black" points="4221.38,-190 4218.38,-194 4197.38,-194 4194.38,-190 4082.62,-190 4082.62,-154 4221.38,-154 4221.38,-190"/>
<text text-anchor="middle" x="4152" y="-167.8" font-family="Times,serif" font-size="14.00">HomeRoutingModule</text>
</g>
<!-- HomeRoutingModule&#45;&gt;HomeModule -->
<g id="edge36" class="edge">
<title>HomeRoutingModule&#45;&gt;HomeModule</title>
<path fill="none" stroke="black" d="M4152.63,-190.11C4152.63,-190.11 4152.63,-208.99 4152.63,-208.99"/>
<polygon fill="black" stroke="black" points="4149.13,-208.99 4152.63,-218.99 4156.13,-208.99 4149.13,-208.99"/>
</g>
</g>
</svg>
