<?xml version="1.0" encoding="UTF-8" standalone="no"?>
<!DOCTYPE svg PUBLIC "-//W3C//DTD SVG 1.1//EN"
 "http://www.w3.org/Graphics/SVG/1.1/DTD/svg11.dtd">
<!-- Generated by graphviz version 2.47.0 (20210316.0004)
 -->
<!-- Title: dependencies Pages: 1 -->
<svg width="2679pt" height="211pt"
 viewBox="0.00 0.00 2679.00 211.00" xmlns="http://www.w3.org/2000/svg" xmlns:xlink="http://www.w3.org/1999/xlink">
<g id="graph0" class="graph" transform="scale(1 1) rotate(0) translate(4 207)">
<title>dependencies</title>
<polygon fill="white" stroke="transparent" points="-4,4 -4,-207 2675,-207 2675,4 -4,4"/>
<text text-anchor="start" x="1314.51" y="-42.4" font-family="Times-12" font-weight="bold" font-size="14.00">Legend</text>
<polygon fill="#ffffb3" stroke="transparent" points="1101.5,-10 1101.5,-30 1121.5,-30 1121.5,-10 1101.5,-10"/>
<text text-anchor="start" x="1125.13" y="-15.4" font-family="Times-12" font-size="14.00"> &#160;Declarations</text>
<polygon fill="#8dd3c7" stroke="transparent" points="1214.5,-10 1214.5,-30 1234.5,-30 1234.5,-10 1214.5,-10"/>
<text text-anchor="start" x="1238.23" y="-15.4" font-family="Times-12" font-size="14.00"> &#160;Module</text>
<polygon fill="#80b1d3" stroke="transparent" points="1300.5,-10 1300.5,-30 1320.5,-30 1320.5,-10 1300.5,-10"/>
<text text-anchor="start" x="1324.28" y="-15.4" font-family="Times-12" font-size="14.00"> &#160;Bootstrap</text>
<polygon fill="#fdb462" stroke="transparent" points="1397.5,-10 1397.5,-30 1417.5,-30 1417.5,-10 1397.5,-10"/>
<text text-anchor="start" x="1421.17" y="-15.4" font-family="Times-12" font-size="14.00"> &#160;Providers</text>
<polygon fill="#fb8072" stroke="transparent" points="1493.5,-10 1493.5,-30 1513.5,-30 1513.5,-10 1493.5,-10"/>
<text text-anchor="start" x="1517.23" y="-15.4" font-family="Times-12" font-size="14.00"> &#160;Exports</text>
<g id="clust1" class="cluster">
<title>cluster_BatchModule</title>
<polygon fill="none" stroke="black" stroke-dasharray="1,5" points="8,-70 8,-195 2663,-195 2663,-70 8,-70"/>
</g>
<g id="clust2" class="cluster">
<title>cluster_BatchModule_declarations</title>
<polygon fill="none" stroke="black" points="442,-78 442,-130 2655,-130 2655,-78 442,-78"/>
</g>
<g id="clust16" class="cluster">
<title>cluster_BatchModule_imports</title>
<polygon fill="none" stroke="black" points="16,-78 16,-130 434,-130 434,-78 16,-78"/>
</g>
<!-- BatchDetailsComponent -->
<g id="node1" class="node">
<title>BatchDetailsComponent</title>
<polygon fill="#ffffb3" stroke="black" points="2646.64,-122 2493.36,-122 2493.36,-86 2646.64,-86 2646.64,-122"/>
<text text-anchor="middle" x="2570" y="-99.8" font-family="Times,serif" font-size="14.00">BatchDetailsComponent</text>
</g>
<!-- BatchModule -->
<g id="node14" class="node">
<title>BatchModule</title>
<polygon fill="#8dd3c7" stroke="black" points="1352.21,-187 1349.21,-191 1328.21,-191 1325.21,-187 1259.79,-187 1259.79,-151 1352.21,-151 1352.21,-187"/>
<text text-anchor="middle" x="1306" y="-164.8" font-family="Times,serif" font-size="14.00">BatchModule</text>
</g>
<!-- BatchDetailsComponent&#45;&gt;BatchModule -->
<g id="edge1" class="edge">
<title>BatchDetailsComponent&#45;&gt;BatchModule</title>
<path fill="none" stroke="black" d="M2570,-122.32C2570,-145.66 2570,-183 2570,-183 2570,-183 1362.11,-183 1362.11,-183"/>
<polygon fill="black" stroke="black" points="1362.11,-179.5 1352.11,-183 1362.11,-186.5 1362.11,-179.5"/>
</g>
<!-- BatchViewComponent -->
<g id="node2" class="node">
<title>BatchViewComponent</title>
<polygon fill="#ffffb3" stroke="black" points="2475.31,-122 2330.69,-122 2330.69,-86 2475.31,-86 2475.31,-122"/>
<text text-anchor="middle" x="2403" y="-99.8" font-family="Times,serif" font-size="14.00">BatchViewComponent</text>
</g>
<!-- BatchViewComponent&#45;&gt;BatchModule -->
<g id="edge2" class="edge">
<title>BatchViewComponent&#45;&gt;BatchModule</title>
<path fill="none" stroke="black" d="M2403,-122.29C2403,-144.21 2403,-178 2403,-178 2403,-178 1362.44,-178 1362.44,-178"/>
<polygon fill="black" stroke="black" points="1362.44,-174.5 1352.44,-178 1362.44,-181.5 1362.44,-174.5"/>
</g>
<!-- BilletDetailsComponent -->
<g id="node3" class="node">
<title>BilletDetailsComponent</title>
<polygon fill="#ffffb3" stroke="black" points="2313.1,-122 2160.9,-122 2160.9,-86 2313.1,-86 2313.1,-122"/>
<text text-anchor="middle" x="2237" y="-99.8" font-family="Times,serif" font-size="14.00">BilletDetailsComponent</text>
</g>
<!-- BilletDetailsComponent&#45;&gt;BatchModule -->
<g id="edge3" class="edge">
<title>BilletDetailsComponent&#45;&gt;BatchModule</title>
<path fill="none" stroke="black" d="M2237,-122.03C2237,-142.77 2237,-174 2237,-174 2237,-174 1362.17,-174 1362.17,-174"/>
<polygon fill="black" stroke="black" points="1362.17,-170.5 1352.17,-174 1362.17,-177.5 1362.17,-170.5"/>
</g>
<!-- ByproductComponent -->
<g id="node4" class="node">
<title>ByproductComponent</title>
<polygon fill="#ffffb3" stroke="black" points="2143.44,-122 2002.56,-122 2002.56,-86 2143.44,-86 2143.44,-122"/>
<text text-anchor="middle" x="2073" y="-99.8" font-family="Times,serif" font-size="14.00">ByproductComponent</text>
</g>
<!-- ByproductComponent&#45;&gt;BatchModule -->
<g id="edge4" class="edge">
<title>ByproductComponent&#45;&gt;BatchModule</title>
<path fill="none" stroke="black" d="M2073,-122.11C2073,-141.34 2073,-169 2073,-169 2073,-169 1362.25,-169 1362.25,-169"/>
<polygon fill="black" stroke="black" points="1362.25,-165.5 1352.25,-169 1362.25,-172.5 1362.25,-165.5"/>
</g>
<!-- CreateBatchComponent -->
<g id="node5" class="node">
<title>CreateBatchComponent</title>
<polygon fill="#ffffb3" stroke="black" points="1985.02,-122 1834.98,-122 1834.98,-86 1985.02,-86 1985.02,-122"/>
<text text-anchor="middle" x="1910" y="-99.8" font-family="Times,serif" font-size="14.00">CreateBatchComponent</text>
</g>
<!-- CreateBatchComponent&#45;&gt;BatchModule -->
<g id="edge5" class="edge">
<title>CreateBatchComponent&#45;&gt;BatchModule</title>
<path fill="none" stroke="black" d="M1910,-122.3C1910,-140.27 1910,-165 1910,-165 1910,-165 1362.39,-165 1362.39,-165"/>
<polygon fill="black" stroke="black" points="1362.39,-161.5 1352.39,-165 1362.39,-168.5 1362.39,-161.5"/>
</g>
<!-- FakeBatchComponent -->
<g id="node6" class="node">
<title>FakeBatchComponent</title>
<polygon fill="#ffffb3" stroke="black" points="1816.7,-122 1675.3,-122 1675.3,-86 1816.7,-86 1816.7,-122"/>
<text text-anchor="middle" x="1746" y="-99.8" font-family="Times,serif" font-size="14.00">FakeBatchComponent</text>
</g>
<!-- FakeBatchComponent&#45;&gt;BatchModule -->
<g id="edge6" class="edge">
<title>FakeBatchComponent&#45;&gt;BatchModule</title>
<path fill="none" stroke="black" d="M1746,-122.03C1746,-138.4 1746,-160 1746,-160 1746,-160 1362.26,-160 1362.26,-160"/>
<polygon fill="black" stroke="black" points="1362.26,-156.5 1352.26,-160 1362.26,-163.5 1362.26,-156.5"/>
</g>
<!-- IngredientComponent -->
<g id="node7" class="node">
<title>IngredientComponent</title>
<polygon fill="#ffffb3" stroke="black" points="1657.36,-122 1518.64,-122 1518.64,-86 1657.36,-86 1657.36,-122"/>
<text text-anchor="middle" x="1588" y="-99.8" font-family="Times,serif" font-size="14.00">IngredientComponent</text>
</g>
<!-- IngredientComponent&#45;&gt;BatchModule -->
<g id="edge7" class="edge">
<title>IngredientComponent&#45;&gt;BatchModule</title>
<path fill="none" stroke="black" d="M1588,-122.19C1588,-137.18 1588,-156 1588,-156 1588,-156 1362.25,-156 1362.25,-156"/>
<polygon fill="black" stroke="black" points="1362.25,-152.5 1352.25,-156 1362.25,-159.5 1362.25,-152.5"/>
</g>
<!-- PhysicalInspectionComponent -->
<g id="node8" class="node">
<title>PhysicalInspectionComponent</title>
<polygon fill="#ffffb3" stroke="black" points="1500.59,-122 1313.41,-122 1313.41,-86 1500.59,-86 1500.59,-122"/>
<text text-anchor="middle" x="1407" y="-99.8" font-family="Times,serif" font-size="14.00">PhysicalInspectionComponent</text>
</g>
<!-- PhysicalInspectionComponent&#45;&gt;BatchModule -->
<g id="edge8" class="edge">
<title>PhysicalInspectionComponent&#45;&gt;BatchModule</title>
<path fill="none" stroke="black" d="M1332.78,-122.11C1332.78,-122.11 1332.78,-140.99 1332.78,-140.99"/>
<polygon fill="black" stroke="black" points="1329.28,-140.99 1332.78,-150.99 1336.28,-140.99 1329.28,-140.99"/>
</g>
<!-- ProcessParameterComponent -->
<g id="node9" class="node">
<title>ProcessParameterComponent</title>
<polygon fill="#ffffb3" stroke="black" points="1295.34,-122 1114.66,-122 1114.66,-86 1295.34,-86 1295.34,-122"/>
<text text-anchor="middle" x="1205" y="-99.8" font-family="Times,serif" font-size="14.00">ProcessParameterComponent</text>
</g>
<!-- ProcessParameterComponent&#45;&gt;BatchModule -->
<g id="edge9" class="edge">
<title>ProcessParameterComponent&#45;&gt;BatchModule</title>
<path fill="none" stroke="black" d="M1277.66,-122.11C1277.66,-122.11 1277.66,-140.99 1277.66,-140.99"/>
<polygon fill="black" stroke="black" points="1274.16,-140.99 1277.66,-150.99 1281.16,-140.99 1274.16,-140.99"/>
</g>
<!-- ProductComponent -->
<g id="node10" class="node">
<title>ProductComponent</title>
<polygon fill="#ffffb3" stroke="black" points="1096.38,-122 971.62,-122 971.62,-86 1096.38,-86 1096.38,-122"/>
<text text-anchor="middle" x="1034" y="-99.8" font-family="Times,serif" font-size="14.00">ProductComponent</text>
</g>
<!-- ProductComponent&#45;&gt;BatchModule -->
<g id="edge10" class="edge">
<title>ProductComponent&#45;&gt;BatchModule</title>
<path fill="none" stroke="black" d="M1034,-122.19C1034,-137.18 1034,-156 1034,-156 1034,-156 1249.86,-156 1249.86,-156"/>
<polygon fill="black" stroke="black" points="1249.86,-159.5 1259.86,-156 1249.86,-152.5 1249.86,-159.5"/>
</g>
<!-- QualityComponent -->
<g id="node11" class="node">
<title>QualityComponent</title>
<polygon fill="#ffffb3" stroke="black" points="953.83,-122 830.17,-122 830.17,-86 953.83,-86 953.83,-122"/>
<text text-anchor="middle" x="892" y="-99.8" font-family="Times,serif" font-size="14.00">QualityComponent</text>
</g>
<!-- QualityComponent&#45;&gt;BatchModule -->
<g id="edge11" class="edge">
<title>QualityComponent&#45;&gt;BatchModule</title>
<path fill="none" stroke="black" d="M892,-122.03C892,-138.4 892,-160 892,-160 892,-160 1249.71,-160 1249.71,-160"/>
<polygon fill="black" stroke="black" points="1249.71,-163.5 1259.71,-160 1249.71,-156.5 1249.71,-163.5"/>
</g>
<!-- ResourceComponent -->
<g id="node12" class="node">
<title>ResourceComponent</title>
<polygon fill="#ffffb3" stroke="black" points="812.92,-122 679.08,-122 679.08,-86 812.92,-86 812.92,-122"/>
<text text-anchor="middle" x="746" y="-99.8" font-family="Times,serif" font-size="14.00">ResourceComponent</text>
</g>
<!-- ResourceComponent&#45;&gt;BatchModule -->
<g id="edge12" class="edge">
<title>ResourceComponent&#45;&gt;BatchModule</title>
<path fill="none" stroke="black" d="M746,-122.3C746,-140.27 746,-165 746,-165 746,-165 1249.7,-165 1249.7,-165"/>
<polygon fill="black" stroke="black" points="1249.7,-168.5 1259.7,-165 1249.7,-161.5 1249.7,-168.5"/>
</g>
<!-- ValidationFailedPopupComponent -->
<g id="node13" class="node">
<title>ValidationFailedPopupComponent</title>
<polygon fill="#ffffb3" stroke="black" points="661.71,-122 450.29,-122 450.29,-86 661.71,-86 661.71,-122"/>
<text text-anchor="middle" x="556" y="-99.8" font-family="Times,serif" font-size="14.00">ValidationFailedPopupComponent</text>
</g>
<!-- ValidationFailedPopupComponent&#45;&gt;BatchModule -->
<g id="edge13" class="edge">
<title>ValidationFailedPopupComponent&#45;&gt;BatchModule</title>
<path fill="none" stroke="black" d="M556,-122.11C556,-141.34 556,-169 556,-169 556,-169 1249.65,-169 1249.65,-169"/>
<polygon fill="black" stroke="black" points="1249.65,-172.5 1259.65,-169 1249.65,-165.5 1249.65,-172.5"/>
</g>
<!-- BatchRoutingModule -->
<g id="node15" class="node">
<title>BatchRoutingModule</title>
<polygon fill="#8dd3c7" stroke="black" points="425.82,-122 422.82,-126 401.82,-126 398.82,-122 288.18,-122 288.18,-86 425.82,-86 425.82,-122"/>
<text text-anchor="middle" x="357" y="-99.8" font-family="Times,serif" font-size="14.00">BatchRoutingModule</text>
</g>
<!-- BatchRoutingModule&#45;&gt;BatchModule -->
<g id="edge14" class="edge">
<title>BatchRoutingModule&#45;&gt;BatchModule</title>
<path fill="none" stroke="black" d="M357,-122.03C357,-142.77 357,-174 357,-174 357,-174 1249.59,-174 1249.59,-174"/>
<polygon fill="black" stroke="black" points="1249.59,-177.5 1259.59,-174 1249.59,-170.5 1249.59,-177.5"/>
</g>
<!-- DevExtremeModule -->
<g id="node16" class="node">
<title>DevExtremeModule</title>
<polygon fill="#8dd3c7" stroke="black" points="270.29,-122 267.29,-126 246.29,-126 243.29,-122 139.71,-122 139.71,-86 270.29,-86 270.29,-122"/>
<text text-anchor="middle" x="205" y="-99.8" font-family="Times,serif" font-size="14.00">DevExtremeModule</text>
</g>
<!-- DevExtremeModule&#45;&gt;BatchModule -->
<g id="edge15" class="edge">
<title>DevExtremeModule&#45;&gt;BatchModule</title>
<path fill="none" stroke="black" d="M205,-122.29C205,-144.21 205,-178 205,-178 205,-178 1249.74,-178 1249.74,-178"/>
<polygon fill="black" stroke="black" points="1249.74,-181.5 1259.74,-178 1249.74,-174.5 1249.74,-181.5"/>
</g>
<!-- SharedModule -->
<g id="node17" class="node">
<title>SharedModule</title>
<polygon fill="#8dd3c7" stroke="black" points="122.42,-122 119.42,-126 98.42,-126 95.42,-122 23.58,-122 23.58,-86 122.42,-86 122.42,-122"/>
<text text-anchor="middle" x="73" y="-99.8" font-family="Times,serif" font-size="14.00">SharedModule</text>
</g>
<!-- SharedModule&#45;&gt;BatchModule -->
<g id="edge16" class="edge">
<title>SharedModule&#45;&gt;BatchModule</title>
<path fill="none" stroke="black" d="M73,-122.32C73,-145.66 73,-183 73,-183 73,-183 1249.54,-183 1249.54,-183"/>
<polygon fill="black" stroke="black" points="1249.54,-186.5 1259.54,-183 1249.54,-179.5 1249.54,-186.5"/>
</g>
</g>
</svg>
