<?xml version="1.0" encoding="UTF-8" standalone="no"?>
<!DOCTYPE svg PUBLIC "-//W3C//DTD SVG 1.1//EN"
 "http://www.w3.org/Graphics/SVG/1.1/DTD/svg11.dtd">
<!-- Generated by graphviz version 2.47.0 (20210316.0004)
 -->
<!-- Title: dependencies Pages: 1 -->
<svg width="618pt" height="211pt"
 viewBox="0.00 0.00 618.00 211.00" xmlns="http://www.w3.org/2000/svg" xmlns:xlink="http://www.w3.org/1999/xlink">
<g id="graph0" class="graph" transform="scale(1 1) rotate(0) translate(4 207)">
<title>dependencies</title>
<polygon fill="white" stroke="transparent" points="-4,4 -4,-207 614,-207 614,4 -4,4"/>
<text text-anchor="start" x="284.01" y="-42.4" font-family="Times-12" font-weight="bold" font-size="14.00">Legend</text>
<polygon fill="#ffffb3" stroke="transparent" points="71,-10 71,-30 91,-30 91,-10 71,-10"/>
<text text-anchor="start" x="94.63" y="-15.4" font-family="Times-12" font-size="14.00"> &#160;Declarations</text>
<polygon fill="#8dd3c7" stroke="transparent" points="184,-10 184,-30 204,-30 204,-10 184,-10"/>
<text text-anchor="start" x="207.73" y="-15.4" font-family="Times-12" font-size="14.00"> &#160;Module</text>
<polygon fill="#80b1d3" stroke="transparent" points="270,-10 270,-30 290,-30 290,-10 270,-10"/>
<text text-anchor="start" x="293.78" y="-15.4" font-family="Times-12" font-size="14.00"> &#160;Bootstrap</text>
<polygon fill="#fdb462" stroke="transparent" points="367,-10 367,-30 387,-30 387,-10 367,-10"/>
<text text-anchor="start" x="390.67" y="-15.4" font-family="Times-12" font-size="14.00"> &#160;Providers</text>
<polygon fill="#fb8072" stroke="transparent" points="463,-10 463,-30 483,-30 483,-10 463,-10"/>
<text text-anchor="start" x="486.73" y="-15.4" font-family="Times-12" font-size="14.00"> &#160;Exports</text>
<g id="clust1" class="cluster">
<title>cluster_HomeModule</title>
<polygon fill="none" stroke="black" stroke-dasharray="1,5" points="8,-70 8,-195 602,-195 602,-70 8,-70"/>
</g>
<g id="clust2" class="cluster">
<title>cluster_HomeModule_declarations</title>
<polygon fill="none" stroke="black" points="444,-78 444,-130 594,-130 594,-78 444,-78"/>
</g>
<g id="clust4" class="cluster">
<title>cluster_HomeModule_imports</title>
<polygon fill="none" stroke="black" points="16,-78 16,-130 436,-130 436,-78 16,-78"/>
</g>
<!-- WelcomeComponent -->
<g id="node1" class="node">
<title>WelcomeComponent</title>
<polygon fill="#ffffb3" stroke="black" points="586.47,-122 451.53,-122 451.53,-86 586.47,-86 586.47,-122"/>
<text text-anchor="middle" x="519" y="-99.8" font-family="Times,serif" font-size="14.00">WelcomeComponent</text>
</g>
<!-- HomeModule -->
<g id="node2" class="node">
<title>HomeModule</title>
<polygon fill="#8dd3c7" stroke="black" points="332.76,-187 329.76,-191 308.76,-191 305.76,-187 239.24,-187 239.24,-151 332.76,-151 332.76,-187"/>
<text text-anchor="middle" x="286" y="-164.8" font-family="Times,serif" font-size="14.00">HomeModule</text>
</g>
<!-- WelcomeComponent&#45;&gt;HomeModule -->
<g id="edge1" class="edge">
<title>WelcomeComponent&#45;&gt;HomeModule</title>
<path fill="none" stroke="black" d="M519,-122.11C519,-141.34 519,-169 519,-169 519,-169 342.87,-169 342.87,-169"/>
<polygon fill="black" stroke="black" points="342.87,-165.5 332.87,-169 342.87,-172.5 342.87,-165.5"/>
</g>
<!-- DevExtremeModule -->
<g id="node3" class="node">
<title>DevExtremeModule</title>
<polygon fill="#8dd3c7" stroke="black" points="428.29,-122 425.29,-126 404.29,-126 401.29,-122 297.71,-122 297.71,-86 428.29,-86 428.29,-122"/>
<text text-anchor="middle" x="363" y="-99.8" font-family="Times,serif" font-size="14.00">DevExtremeModule</text>
</g>
<!-- DevExtremeModule&#45;&gt;HomeModule -->
<g id="edge2" class="edge">
<title>DevExtremeModule&#45;&gt;HomeModule</title>
<path fill="none" stroke="black" d="M315.37,-122.11C315.37,-122.11 315.37,-140.99 315.37,-140.99"/>
<polygon fill="black" stroke="black" points="311.87,-140.99 315.37,-150.99 318.87,-140.99 311.87,-140.99"/>
</g>
<!-- HomeRoutingModule -->
<g id="node4" class="node">
<title>HomeRoutingModule</title>
<polygon fill="#8dd3c7" stroke="black" points="279.38,-122 276.38,-126 255.38,-126 252.38,-122 140.62,-122 140.62,-86 279.38,-86 279.38,-122"/>
<text text-anchor="middle" x="210" y="-99.8" font-family="Times,serif" font-size="14.00">HomeRoutingModule</text>
</g>
<!-- HomeRoutingModule&#45;&gt;HomeModule -->
<g id="edge3" class="edge">
<title>HomeRoutingModule&#45;&gt;HomeModule</title>
<path fill="none" stroke="black" d="M259.28,-122.11C259.28,-122.11 259.28,-140.99 259.28,-140.99"/>
<polygon fill="black" stroke="black" points="255.78,-140.99 259.28,-150.99 262.78,-140.99 255.78,-140.99"/>
</g>
<!-- SharedModule -->
<g id="node5" class="node">
<title>SharedModule</title>
<polygon fill="#8dd3c7" stroke="black" points="122.42,-122 119.42,-126 98.42,-126 95.42,-122 23.58,-122 23.58,-86 122.42,-86 122.42,-122"/>
<text text-anchor="middle" x="73" y="-99.8" font-family="Times,serif" font-size="14.00">SharedModule</text>
</g>
<!-- SharedModule&#45;&gt;HomeModule -->
<g id="edge4" class="edge">
<title>SharedModule&#45;&gt;HomeModule</title>
<path fill="none" stroke="black" d="M73,-122.11C73,-141.34 73,-169 73,-169 73,-169 228.99,-169 228.99,-169"/>
<polygon fill="black" stroke="black" points="228.99,-172.5 238.99,-169 228.99,-165.5 228.99,-172.5"/>
</g>
</g>
</svg>
