<?xml version="1.0" encoding="UTF-8" standalone="no"?>
<!DOCTYPE svg PUBLIC "-//W3C//DTD SVG 1.1//EN"
 "http://www.w3.org/Graphics/SVG/1.1/DTD/svg11.dtd">
<!-- Generated by graphviz version 2.47.0 (20210316.0004)
 -->
<!-- Title: dependencies Pages: 1 -->
<svg width="698pt" height="211pt"
 viewBox="0.00 0.00 698.00 211.00" xmlns="http://www.w3.org/2000/svg" xmlns:xlink="http://www.w3.org/1999/xlink">
<g id="graph0" class="graph" transform="scale(1 1) rotate(0) translate(4 207)">
<title>dependencies</title>
<polygon fill="white" stroke="transparent" points="-4,4 -4,-207 694,-207 694,4 -4,4"/>
<text text-anchor="start" x="324.01" y="-42.4" font-family="Times-12" font-weight="bold" font-size="14.00">Legend</text>
<polygon fill="#ffffb3" stroke="transparent" points="111,-10 111,-30 131,-30 131,-10 111,-10"/>
<text text-anchor="start" x="134.63" y="-15.4" font-family="Times-12" font-size="14.00"> &#160;Declarations</text>
<polygon fill="#8dd3c7" stroke="transparent" points="224,-10 224,-30 244,-30 244,-10 224,-10"/>
<text text-anchor="start" x="247.73" y="-15.4" font-family="Times-12" font-size="14.00"> &#160;Module</text>
<polygon fill="#80b1d3" stroke="transparent" points="310,-10 310,-30 330,-30 330,-10 310,-10"/>
<text text-anchor="start" x="333.78" y="-15.4" font-family="Times-12" font-size="14.00"> &#160;Bootstrap</text>
<polygon fill="#fdb462" stroke="transparent" points="407,-10 407,-30 427,-30 427,-10 407,-10"/>
<text text-anchor="start" x="430.67" y="-15.4" font-family="Times-12" font-size="14.00"> &#160;Providers</text>
<polygon fill="#fb8072" stroke="transparent" points="503,-10 503,-30 523,-30 523,-10 503,-10"/>
<text text-anchor="start" x="526.73" y="-15.4" font-family="Times-12" font-size="14.00"> &#160;Exports</text>
<g id="clust1" class="cluster">
<title>cluster_RmpmBudgetModule</title>
<polygon fill="none" stroke="black" stroke-dasharray="1,5" points="8,-70 8,-195 682,-195 682,-70 8,-70"/>
</g>
<g id="clust4" class="cluster">
<title>cluster_RmpmBudgetModule_imports</title>
<polygon fill="none" stroke="black" points="210,-78 210,-130 674,-130 674,-78 210,-78"/>
</g>
<g id="clust2" class="cluster">
<title>cluster_RmpmBudgetModule_declarations</title>
<polygon fill="none" stroke="black" points="16,-78 16,-130 202,-130 202,-78 16,-78"/>
</g>
<!-- RmpmBdgtAddComponent -->
<g id="node1" class="node">
<title>RmpmBdgtAddComponent</title>
<polygon fill="#ffffb3" stroke="black" points="194.28,-122 23.72,-122 23.72,-86 194.28,-86 194.28,-122"/>
<text text-anchor="middle" x="109" y="-99.8" font-family="Times,serif" font-size="14.00">RmpmBdgtAddComponent</text>
</g>
<!-- RmpmBudgetModule -->
<g id="node2" class="node">
<title>RmpmBudgetModule</title>
<polygon fill="#8dd3c7" stroke="black" points="415.11,-187 412.11,-191 391.11,-191 388.11,-187 276.89,-187 276.89,-151 415.11,-151 415.11,-187"/>
<text text-anchor="middle" x="346" y="-164.8" font-family="Times,serif" font-size="14.00">RmpmBudgetModule</text>
</g>
<!-- RmpmBdgtAddComponent&#45;&gt;RmpmBudgetModule -->
<g id="edge1" class="edge">
<title>RmpmBdgtAddComponent&#45;&gt;RmpmBudgetModule</title>
<path fill="none" stroke="black" d="M109,-122.11C109,-141.34 109,-169 109,-169 109,-169 266.81,-169 266.81,-169"/>
<polygon fill="black" stroke="black" points="266.81,-172.5 276.81,-169 266.81,-165.5 266.81,-172.5"/>
</g>
<!-- DevExtremeModule -->
<g id="node3" class="node">
<title>DevExtremeModule</title>
<polygon fill="#8dd3c7" stroke="black" points="666.29,-122 663.29,-126 642.29,-126 639.29,-122 535.71,-122 535.71,-86 666.29,-86 666.29,-122"/>
<text text-anchor="middle" x="601" y="-99.8" font-family="Times,serif" font-size="14.00">DevExtremeModule</text>
</g>
<!-- DevExtremeModule&#45;&gt;RmpmBudgetModule -->
<g id="edge2" class="edge">
<title>DevExtremeModule&#45;&gt;RmpmBudgetModule</title>
<path fill="none" stroke="black" d="M601,-122.11C601,-141.34 601,-169 601,-169 601,-169 425.34,-169 425.34,-169"/>
<polygon fill="black" stroke="black" points="425.34,-165.5 415.34,-169 425.34,-172.5 425.34,-165.5"/>
</g>
<!-- RmpmBudgetRoutingModule -->
<g id="node4" class="node">
<title>RmpmBudgetRoutingModule</title>
<polygon fill="#8dd3c7" stroke="black" points="517.73,-122 514.73,-126 493.73,-126 490.73,-122 334.27,-122 334.27,-86 517.73,-86 517.73,-122"/>
<text text-anchor="middle" x="426" y="-99.8" font-family="Times,serif" font-size="14.00">RmpmBudgetRoutingModule</text>
</g>
<!-- RmpmBudgetRoutingModule&#45;&gt;RmpmBudgetModule -->
<g id="edge3" class="edge">
<title>RmpmBudgetRoutingModule&#45;&gt;RmpmBudgetModule</title>
<path fill="none" stroke="black" d="M374.72,-122.11C374.72,-122.11 374.72,-140.99 374.72,-140.99"/>
<polygon fill="black" stroke="black" points="371.22,-140.99 374.72,-150.99 378.22,-140.99 371.22,-140.99"/>
</g>
<!-- SharedModule -->
<g id="node5" class="node">
<title>SharedModule</title>
<polygon fill="#8dd3c7" stroke="black" points="316.42,-122 313.42,-126 292.42,-126 289.42,-122 217.58,-122 217.58,-86 316.42,-86 316.42,-122"/>
<text text-anchor="middle" x="267" y="-99.8" font-family="Times,serif" font-size="14.00">SharedModule</text>
</g>
<!-- SharedModule&#45;&gt;RmpmBudgetModule -->
<g id="edge4" class="edge">
<title>SharedModule&#45;&gt;RmpmBudgetModule</title>
<path fill="none" stroke="black" d="M296.58,-122.11C296.58,-122.11 296.58,-140.99 296.58,-140.99"/>
<polygon fill="black" stroke="black" points="293.08,-140.99 296.58,-150.99 300.08,-140.99 293.08,-140.99"/>
</g>
</g>
</svg>
