<?xml version="1.0" encoding="UTF-8" standalone="no"?>
<!DOCTYPE svg PUBLIC "-//W3C//DTD SVG 1.1//EN"
 "http://www.w3.org/Graphics/SVG/1.1/DTD/svg11.dtd">
<!-- Generated by graphviz version 2.47.0 (20210316.0004)
 -->
<!-- Title: dependencies Pages: 1 -->
<svg width="726pt" height="211pt"
 viewBox="0.00 0.00 726.00 211.00" xmlns="http://www.w3.org/2000/svg" xmlns:xlink="http://www.w3.org/1999/xlink">
<g id="graph0" class="graph" transform="scale(1 1) rotate(0) translate(4 207)">
<title>dependencies</title>
<polygon fill="white" stroke="transparent" points="-4,4 -4,-207 722,-207 722,4 -4,4"/>
<text text-anchor="start" x="338.01" y="-42.4" font-family="Times-12" font-weight="bold" font-size="14.00">Legend</text>
<polygon fill="#ffffb3" stroke="transparent" points="125,-10 125,-30 145,-30 145,-10 125,-10"/>
<text text-anchor="start" x="148.63" y="-15.4" font-family="Times-12" font-size="14.00"> &#160;Declarations</text>
<polygon fill="#8dd3c7" stroke="transparent" points="238,-10 238,-30 258,-30 258,-10 238,-10"/>
<text text-anchor="start" x="261.73" y="-15.4" font-family="Times-12" font-size="14.00"> &#160;Module</text>
<polygon fill="#80b1d3" stroke="transparent" points="324,-10 324,-30 344,-30 344,-10 324,-10"/>
<text text-anchor="start" x="347.78" y="-15.4" font-family="Times-12" font-size="14.00"> &#160;Bootstrap</text>
<polygon fill="#fdb462" stroke="transparent" points="421,-10 421,-30 441,-30 441,-10 421,-10"/>
<text text-anchor="start" x="444.67" y="-15.4" font-family="Times-12" font-size="14.00"> &#160;Providers</text>
<polygon fill="#fb8072" stroke="transparent" points="517,-10 517,-30 537,-30 537,-10 517,-10"/>
<text text-anchor="start" x="540.73" y="-15.4" font-family="Times-12" font-size="14.00"> &#160;Exports</text>
<g id="clust1" class="cluster">
<title>cluster_CommonBudgetModule</title>
<polygon fill="none" stroke="black" stroke-dasharray="1,5" points="8,-70 8,-195 710,-195 710,-70 8,-70"/>
</g>
<g id="clust4" class="cluster">
<title>cluster_CommonBudgetModule_imports</title>
<polygon fill="none" stroke="black" points="224,-78 224,-130 702,-130 702,-78 224,-78"/>
</g>
<g id="clust2" class="cluster">
<title>cluster_CommonBudgetModule_declarations</title>
<polygon fill="none" stroke="black" points="16,-78 16,-130 216,-130 216,-78 16,-78"/>
</g>
<!-- CommonBdgtAddComponent -->
<g id="node1" class="node">
<title>CommonBdgtAddComponent</title>
<polygon fill="#ffffb3" stroke="black" points="208.28,-122 23.72,-122 23.72,-86 208.28,-86 208.28,-122"/>
<text text-anchor="middle" x="116" y="-99.8" font-family="Times,serif" font-size="14.00">CommonBdgtAddComponent</text>
</g>
<!-- CommonBudgetModule -->
<g id="node2" class="node">
<title>CommonBudgetModule</title>
<polygon fill="#8dd3c7" stroke="black" points="423.11,-187 420.11,-191 399.11,-191 396.11,-187 270.89,-187 270.89,-151 423.11,-151 423.11,-187"/>
<text text-anchor="middle" x="347" y="-164.8" font-family="Times,serif" font-size="14.00">CommonBudgetModule</text>
</g>
<!-- CommonBdgtAddComponent&#45;&gt;CommonBudgetModule -->
<g id="edge1" class="edge">
<title>CommonBdgtAddComponent&#45;&gt;CommonBudgetModule</title>
<path fill="none" stroke="black" d="M116,-122.11C116,-141.34 116,-169 116,-169 116,-169 260.72,-169 260.72,-169"/>
<polygon fill="black" stroke="black" points="260.72,-172.5 270.72,-169 260.72,-165.5 260.72,-172.5"/>
</g>
<!-- CommonBudgetRoutingModule -->
<g id="node3" class="node">
<title>CommonBudgetRoutingModule</title>
<polygon fill="#8dd3c7" stroke="black" points="693.73,-122 690.73,-126 669.73,-126 666.73,-122 496.27,-122 496.27,-86 693.73,-86 693.73,-122"/>
<text text-anchor="middle" x="595" y="-99.8" font-family="Times,serif" font-size="14.00">CommonBudgetRoutingModule</text>
</g>
<!-- CommonBudgetRoutingModule&#45;&gt;CommonBudgetModule -->
<g id="edge2" class="edge">
<title>CommonBudgetRoutingModule&#45;&gt;CommonBudgetModule</title>
<path fill="none" stroke="black" d="M595,-122.11C595,-141.34 595,-169 595,-169 595,-169 433.09,-169 433.09,-169"/>
<polygon fill="black" stroke="black" points="433.09,-165.5 423.09,-169 433.09,-172.5 433.09,-165.5"/>
</g>
<!-- DevExtremeModule -->
<g id="node4" class="node">
<title>DevExtremeModule</title>
<polygon fill="#8dd3c7" stroke="black" points="478.29,-122 475.29,-126 454.29,-126 451.29,-122 347.71,-122 347.71,-86 478.29,-86 478.29,-122"/>
<text text-anchor="middle" x="413" y="-99.8" font-family="Times,serif" font-size="14.00">DevExtremeModule</text>
</g>
<!-- DevExtremeModule&#45;&gt;CommonBudgetModule -->
<g id="edge3" class="edge">
<title>DevExtremeModule&#45;&gt;CommonBudgetModule</title>
<path fill="none" stroke="black" d="M385.45,-122.11C385.45,-122.11 385.45,-140.99 385.45,-140.99"/>
<polygon fill="black" stroke="black" points="381.95,-140.99 385.45,-150.99 388.95,-140.99 381.95,-140.99"/>
</g>
<!-- SharedModule -->
<g id="node5" class="node">
<title>SharedModule</title>
<polygon fill="#8dd3c7" stroke="black" points="330.42,-122 327.42,-126 306.42,-126 303.42,-122 231.58,-122 231.58,-86 330.42,-86 330.42,-122"/>
<text text-anchor="middle" x="281" y="-99.8" font-family="Times,serif" font-size="14.00">SharedModule</text>
</g>
<!-- SharedModule&#45;&gt;CommonBudgetModule -->
<g id="edge4" class="edge">
<title>SharedModule&#45;&gt;CommonBudgetModule</title>
<path fill="none" stroke="black" d="M300.58,-122.11C300.58,-122.11 300.58,-140.99 300.58,-140.99"/>
<polygon fill="black" stroke="black" points="297.08,-140.99 300.58,-150.99 304.08,-140.99 297.08,-140.99"/>
</g>
</g>
</svg>
